<svg width="218.000000" height="52.000000" viewBox="0 0 218 52" fill="none" xmlns="http://www.w3.org/2000/svg" xmlns:xlink="http://www.w3.org/1999/xlink">
	<desc>
			Created with Pixso.
	</desc>
	<defs>
		<clipPath id="clip1_12996">
			<rect id="Frame 194" rx="5.000000" width="218.000000" height="40.000000" transform="translate(0.000000 12.000000)" fill="white" fill-opacity="0"/>
		</clipPath>
	</defs>
	<rect id="Frame 194" rx="5.000000" width="218.000000" height="40.000000" transform="translate(0.000000 12.000000)" fill="#2F74FA" fill-opacity="1.000000"/>
	<g clip-path="url(#clip1_12996)">
		<path id="Добавить магазин" d="M49.5986 26.292L49.5986 35.8867L50.917 35.8867L50.917 39.7979L49.7231 39.7979L49.7231 37L42.2817 37L42.2817 39.7979L41.0879 39.7979L41.0879 35.8867L41.9082 35.8867Q42.4575 34.9492 42.9373 33.781Q43.417 32.6128 43.7942 31.3347Q44.1714 30.0566 44.4094 28.7676Q44.6475 27.4785 44.7134 26.292L49.5986 26.292ZM48.3608 27.4126L45.812 27.4126Q45.7461 28.3208 45.519 29.4377Q45.292 30.5547 44.9368 31.7266Q44.5815 32.8984 44.1458 33.9751Q43.71 35.0518 43.2266 35.8867L48.3608 35.8867L48.3608 27.4126ZM59.4644 32.9717Q59.4644 33.9604 59.208 34.7368Q58.9517 35.5132 58.4683 36.0479Q57.9849 36.5825 57.3 36.8645Q56.6152 37.1465 55.751 37.1465Q54.9453 37.1465 54.2751 36.8645Q53.605 36.5825 53.1179 36.0479Q52.6309 35.5132 52.3635 34.7368Q52.0962 33.9604 52.0962 32.9717Q52.0962 31.6533 52.543 30.7268Q52.9897 29.8003 53.821 29.3132Q54.6523 28.8262 55.8022 28.8262Q56.9009 28.8262 57.7249 29.3169Q58.5488 29.8076 59.0066 30.7341Q59.4644 31.6606 59.4644 32.9717ZM53.356 32.9717Q53.356 33.9385 53.6123 34.6489Q53.8687 35.3594 54.4033 35.7476Q54.938 36.1357 55.7803 36.1357Q56.6152 36.1357 57.1536 35.7476Q57.6919 35.3594 57.9482 34.6489Q58.2046 33.9385 58.2046 32.9717Q58.2046 32.0122 57.9482 31.3127Q57.6919 30.6133 57.1572 30.2324Q56.6226 29.8516 55.7729 29.8516Q54.5205 29.8516 53.9382 30.6792Q53.356 31.5068 53.356 32.9717ZM61.1489 32.1807Q61.1489 30.4668 61.4785 29.2546Q61.8081 28.0425 62.5002 27.3064Q63.1924 26.5703 64.2837 26.2993Q65.2212 26.043 66.188 25.8562Q67.1548 25.6694 68.0703 25.5303L68.2827 26.5996Q67.8213 26.6655 67.3159 26.7498Q66.8105 26.834 66.3052 26.9255Q65.7998 27.0171 65.353 27.116Q64.9062 27.2148 64.562 27.3174Q63.9395 27.4858 63.489 27.9033Q63.0386 28.3208 62.7786 29.0532Q62.5186 29.7856 62.4673 30.8989L62.5552 30.8989Q62.7749 30.5767 63.1558 30.2617Q63.5366 29.9468 64.064 29.738Q64.5913 29.5293 65.2505 29.5293Q66.2905 29.5293 66.9863 29.9797Q67.6821 30.4302 68.0337 31.2432Q68.3853 32.0562 68.3853 33.1475Q68.3853 34.4585 67.9348 35.3521Q67.4844 36.2456 66.6714 36.696Q65.8584 37.1465 64.7598 37.1465Q63.9102 37.1465 63.24 36.8169Q62.5698 36.4873 62.1047 35.8501Q61.6396 35.2129 61.3943 34.29Q61.1489 33.3672 61.1489 32.1807ZM64.855 36.1357Q65.5508 36.1357 66.0525 35.8428Q66.5542 35.5498 66.8289 34.9163Q67.1035 34.2827 67.1035 33.2646Q67.1035 31.9902 66.6165 31.2688Q66.1294 30.5474 65.0601 30.5474Q64.3936 30.5474 63.8516 30.8293Q63.3096 31.1113 62.936 31.4995Q62.5625 31.8877 62.394 32.1953Q62.394 32.9424 62.5039 33.6455Q62.6138 34.3486 62.8848 34.9126Q63.1558 35.4766 63.6355 35.8062Q64.1152 36.1357 64.855 36.1357ZM73.4902 28.8408Q74.9258 28.8408 75.6216 29.4854Q76.3174 30.1299 76.3174 31.5435L76.3174 37L75.4312 37L75.1968 35.8135L75.1382 35.8135Q74.8013 36.2529 74.4351 36.5496Q74.0688 36.8462 73.5891 36.9963Q73.1094 37.1465 72.4136 37.1465Q71.6812 37.1465 71.1135 36.8901Q70.5459 36.6338 70.22 36.1138Q69.894 35.5938 69.894 34.7954Q69.894 33.5942 70.8462 32.9497Q71.7983 32.3052 73.7466 32.2466L75.1309 32.188L75.1309 31.6973Q75.1309 30.6572 74.6841 30.2397Q74.2373 29.8223 73.4243 29.8223Q72.7944 29.8223 72.2231 30.0054Q71.6519 30.1885 71.1392 30.4375L70.7656 29.5146Q71.3076 29.2363 72.0107 29.0386Q72.7139 28.8408 73.4902 28.8408ZM75.1162 33.0449L73.8931 33.0962Q72.3916 33.1548 71.7764 33.5869Q71.1611 34.019 71.1611 34.8101Q71.1611 35.4985 71.5786 35.8281Q71.9961 36.1577 72.6846 36.1577Q73.7539 36.1577 74.4351 35.5645Q75.1162 34.9712 75.1162 33.7847L75.1162 33.0449ZM85.2017 30.9868Q85.2017 31.7412 84.7622 32.1624Q84.3228 32.5835 83.627 32.73L83.627 32.7886Q84.3813 32.8911 84.927 33.3269Q85.4727 33.7627 85.4727 34.6562Q85.4727 35.3447 85.1431 35.8721Q84.8135 36.3994 84.1104 36.6997Q83.4072 37 82.2793 37L78.8223 37L78.8223 28.9727L82.25 28.9727Q83.1143 28.9727 83.7771 29.1667Q84.4399 29.3608 84.8208 29.8003Q85.2017 30.2397 85.2017 30.9868ZM84.2056 34.6562Q84.2056 33.9458 83.6672 33.6309Q83.1289 33.3159 82.1035 33.3159L80.0454 33.3159L80.0454 36.0112L82.1328 36.0112Q83.1436 36.0112 83.6746 35.7Q84.2056 35.3887 84.2056 34.6562ZM83.9639 31.126Q83.9639 30.5547 83.5464 30.2727Q83.1289 29.9907 82.1768 29.9907L80.0454 29.9907L80.0454 32.2979L81.9644 32.2979Q82.9531 32.2979 83.4585 32.0122Q83.9639 31.7266 83.9639 31.126ZM88.5928 28.9727L88.5928 34.019Q88.5928 34.1655 88.5854 34.3962Q88.5781 34.627 88.5635 34.887Q88.5488 35.147 88.5378 35.385Q88.5269 35.623 88.5122 35.7769L92.8921 28.9727L94.3862 28.9727L94.3862 37L93.251 37L93.251 32.0781Q93.251 31.8438 93.2583 31.4775Q93.2656 31.1113 93.2803 30.7561Q93.2949 30.4009 93.3022 30.2031L88.937 37L87.4355 37L87.4355 28.9727L88.5928 28.9727ZM102.443 30.0054L99.7988 30.0054L99.7988 37L98.5977 37L98.5977 30.0054L95.9902 30.0054L95.9902 28.9727L102.443 28.9727L102.443 30.0054ZM105.255 32.2832L107.716 32.2832Q108.742 32.2832 109.423 32.5396Q110.104 32.7959 110.445 33.3013Q110.785 33.8066 110.785 34.5537Q110.785 35.3008 110.452 35.8501Q110.119 36.3994 109.427 36.6997Q108.734 37 107.643 37L104.032 37L104.032 28.9727L105.255 28.9727L105.255 32.2832ZM109.562 34.6123Q109.562 33.8726 109.038 33.5833Q108.515 33.2939 107.577 33.2939L105.255 33.2939L105.255 36.0112L107.584 36.0112Q108.463 36.0112 109.013 35.6853Q109.562 35.3594 109.562 34.6123ZM125.25 28.9727L125.25 37L124.152 37L124.152 31.7705Q124.152 31.4482 124.17 31.115Q124.188 30.7817 124.218 30.4448L124.174 30.4448L121.508 37L120.475 37L117.875 30.4448L117.831 30.4448Q117.853 30.7817 117.864 31.115Q117.875 31.4482 117.875 31.8145L117.875 37L116.769 37L116.769 28.9727L118.402 28.9727L120.995 35.5352L123.625 28.9727L125.25 28.9727ZM130.78 28.8408Q132.216 28.8408 132.912 29.4854Q133.607 30.1299 133.607 31.5435L133.607 37L132.721 37L132.487 35.8135L132.428 35.8135Q132.091 36.2529 131.725 36.5496Q131.359 36.8462 130.879 36.9963Q130.399 37.1465 129.704 37.1465Q128.971 37.1465 128.404 36.8901Q127.836 36.6338 127.51 36.1138Q127.184 35.5938 127.184 34.7954Q127.184 33.5942 128.136 32.9497Q129.088 32.3052 131.037 32.2466L132.421 32.188L132.421 31.6973Q132.421 30.6572 131.974 30.2397Q131.527 29.8223 130.714 29.8223Q130.084 29.8223 129.513 30.0054Q128.942 30.1885 128.429 30.4375L128.056 29.5146Q128.598 29.2363 129.301 29.0386Q130.004 28.8408 130.78 28.8408ZM132.406 33.0449L131.183 33.0962Q129.682 33.1548 129.066 33.5869Q128.451 34.019 128.451 34.8101Q128.451 35.4985 128.869 35.8281Q129.286 36.1577 129.975 36.1577Q131.044 36.1577 131.725 35.5645Q132.406 34.9712 132.406 33.7847L132.406 33.0449ZM140.983 28.9727L140.983 30.0054L137.335 30.0054L137.335 37L136.112 37L136.112 28.9727L140.983 28.9727ZM145.583 28.8408Q147.018 28.8408 147.714 29.4854Q148.41 30.1299 148.41 31.5435L148.41 37L147.523 37L147.289 35.8135L147.23 35.8135Q146.894 36.2529 146.527 36.5496Q146.161 36.8462 145.681 36.9963Q145.202 37.1465 144.506 37.1465Q143.773 37.1465 143.206 36.8901Q142.638 36.6338 142.312 36.1138Q141.986 35.5938 141.986 34.7954Q141.986 33.5942 142.938 32.9497Q143.891 32.3052 145.839 32.2466L147.223 32.188L147.223 31.6973Q147.223 30.6572 146.776 30.2397Q146.33 29.8223 145.517 29.8223Q144.887 29.8223 144.315 30.0054Q143.744 30.1885 143.231 30.4375L142.858 29.5146Q143.4 29.2363 144.103 29.0386Q144.806 28.8408 145.583 28.8408ZM147.208 33.0449L145.985 33.0962Q144.484 33.1548 143.869 33.5869Q143.253 34.019 143.253 34.8101Q143.253 35.4985 143.671 35.8281Q144.088 36.1577 144.777 36.1577Q145.846 36.1577 146.527 35.5645Q147.208 34.9712 147.208 33.7847L147.208 33.0449ZM152.98 28.8262Q153.881 28.8262 154.54 29.0715Q155.199 29.3169 155.558 29.7856Q155.917 30.2544 155.917 30.9282Q155.917 31.6533 155.521 32.0854Q155.126 32.5176 154.43 32.708L154.43 32.7666Q154.921 32.8984 155.32 33.1438Q155.719 33.3892 155.957 33.7883Q156.195 34.1875 156.195 34.7808Q156.195 35.4546 155.829 35.9929Q155.463 36.5312 154.716 36.8389Q153.969 37.1465 152.826 37.1465Q152.262 37.1465 151.757 37.0842Q151.251 37.022 150.841 36.9048Q150.431 36.7876 150.124 36.6265L150.124 35.5205Q150.636 35.7695 151.325 35.96Q152.013 36.1504 152.812 36.1504Q153.427 36.1504 153.917 36.0076Q154.408 35.8647 154.698 35.5461Q154.987 35.2275 154.987 34.7075Q154.987 34.2314 154.73 33.9202Q154.474 33.6089 153.965 33.4587Q153.456 33.3086 152.68 33.3086L151.603 33.3086L151.603 32.3125L152.489 32.3125Q153.522 32.3125 154.137 32.0195Q154.752 31.7266 154.752 31.0308Q154.752 30.4302 154.276 30.1335Q153.8 29.8369 152.914 29.8369Q152.255 29.8369 151.75 29.9724Q151.244 30.1079 150.658 30.3569L150.226 29.3828Q150.856 29.1045 151.544 28.9653Q152.233 28.8262 152.98 28.8262ZM159.323 28.9727L159.323 34.019Q159.323 34.1655 159.315 34.3962Q159.308 34.627 159.293 34.887Q159.279 35.147 159.268 35.385Q159.257 35.623 159.242 35.7769L163.622 28.9727L165.116 28.9727L165.116 37L163.981 37L163.981 32.0781Q163.981 31.8438 163.988 31.4775Q163.996 31.1113 164.01 30.7561Q164.025 30.4009 164.032 30.2031L159.667 37L158.166 37L158.166 28.9727L159.323 28.9727ZM168.925 28.9727L168.925 32.3418L173.4 32.3418L173.4 28.9727L174.616 28.9727L174.616 37L173.4 37L173.4 33.3745L168.925 33.3745L168.925 37L167.702 37L167.702 28.9727L168.925 28.9727Z" fill="#FFFFFF" fill-opacity="1.000000" fill-rule="evenodd"/>
	</g>
	<circle id="Ellipse 50" cx="195.000000" cy="12.000000" r="12.000000" fill="#FFFFFF" fill-opacity="1.000000"/>
	<circle id="Ellipse 50" cx="195.000000" cy="12.000000" r="11.586206" stroke="#2F74FA" stroke-opacity="1.000000" stroke-width="0.827586"/>
	<path id="+" d="M196.128 11.522L198.625 11.522L198.625 12.3464L196.128 12.3464L196.128 14.9164L195.297 14.9164L195.297 12.3464L192.8 12.3464L192.8 11.522L195.297 11.522L195.297 8.93986L196.128 8.93986L196.128 11.522Z" fill="#2F74FA" fill-opacity="1.000000" fill-rule="evenodd"/>
</svg>
