<svg width="174.000000" height="56.000000" viewBox="0 0 174 56" fill="none" xmlns="http://www.w3.org/2000/svg" xmlns:xlink="http://www.w3.org/1999/xlink">
	<desc>
			Created with Pixso.
	</desc>
	<defs>
		<clipPath id="clip1_10417">
			<rect id="Frame 111" rx="5.000000" width="174.000000" height="44.000000" transform="translate(0.000000 12.000000)" fill="white" fill-opacity="0"/>
		</clipPath>
	</defs>
	<rect id="Frame 111" rx="5.000000" width="174.000000" height="44.000000" transform="translate(0.000000 12.000000)" fill="#2F74FA" fill-opacity="1.000000"/>
	<g clip-path="url(#clip1_10417)">
		<path id="Добавить" d="M58.5986 27.292L58.5986 36.8867L59.917 36.8867L59.917 40.7979L58.7231 40.7979L58.7231 38L51.2817 38L51.2817 40.7979L50.0879 40.7979L50.0879 36.8867L50.9082 36.8867Q51.4575 35.9492 51.9373 34.781Q52.417 33.6128 52.7942 32.3347Q53.1714 31.0566 53.4094 29.7676Q53.6475 28.4785 53.7134 27.292L58.5986 27.292ZM57.3608 28.4126L54.812 28.4126Q54.7461 29.3208 54.519 30.4377Q54.292 31.5547 53.9368 32.7266Q53.5815 33.8984 53.1458 34.9751Q52.71 36.0518 52.2266 36.8867L57.3608 36.8867L57.3608 28.4126ZM68.4644 33.9717Q68.4644 34.9604 68.208 35.7368Q67.9517 36.5132 67.4683 37.0479Q66.9849 37.5825 66.3 37.8645Q65.6152 38.1465 64.751 38.1465Q63.9453 38.1465 63.2751 37.8645Q62.605 37.5825 62.1179 37.0479Q61.6309 36.5132 61.3635 35.7368Q61.0962 34.9604 61.0962 33.9717Q61.0962 32.6533 61.543 31.7268Q61.9897 30.8003 62.821 30.3132Q63.6523 29.8262 64.8022 29.8262Q65.9009 29.8262 66.7249 30.3169Q67.5488 30.8076 68.0066 31.7341Q68.4644 32.6606 68.4644 33.9717ZM62.356 33.9717Q62.356 34.9385 62.6123 35.6489Q62.8687 36.3594 63.4033 36.7476Q63.938 37.1357 64.7803 37.1357Q65.6152 37.1357 66.1536 36.7476Q66.6919 36.3594 66.9482 35.6489Q67.2046 34.9385 67.2046 33.9717Q67.2046 33.0122 66.9482 32.3127Q66.6919 31.6133 66.1572 31.2324Q65.6226 30.8516 64.7729 30.8516Q63.5205 30.8516 62.9382 31.6792Q62.356 32.5068 62.356 33.9717ZM70.1489 33.1807Q70.1489 31.4668 70.4785 30.2546Q70.8081 29.0425 71.5002 28.3064Q72.1924 27.5703 73.2837 27.2993Q74.2212 27.043 75.188 26.8562Q76.1548 26.6694 77.0703 26.5303L77.2827 27.5996Q76.8213 27.6655 76.3159 27.7498Q75.8105 27.834 75.3052 27.9255Q74.7998 28.0171 74.353 28.116Q73.9062 28.2148 73.562 28.3174Q72.9395 28.4858 72.489 28.9033Q72.0386 29.3208 71.7786 30.0532Q71.5186 30.7856 71.4673 31.8989L71.5552 31.8989Q71.7749 31.5767 72.1558 31.2617Q72.5366 30.9468 73.064 30.738Q73.5913 30.5293 74.2505 30.5293Q75.2905 30.5293 75.9863 30.9797Q76.6821 31.4302 77.0337 32.2432Q77.3853 33.0562 77.3853 34.1475Q77.3853 35.4585 76.9348 36.3521Q76.4844 37.2456 75.6714 37.696Q74.8584 38.1465 73.7598 38.1465Q72.9102 38.1465 72.24 37.8169Q71.5698 37.4873 71.1047 36.8501Q70.6396 36.2129 70.3943 35.29Q70.1489 34.3672 70.1489 33.1807ZM73.855 37.1357Q74.5508 37.1357 75.0525 36.8428Q75.5542 36.5498 75.8289 35.9163Q76.1035 35.2827 76.1035 34.2646Q76.1035 32.9902 75.6165 32.2688Q75.1294 31.5474 74.0601 31.5474Q73.3936 31.5474 72.8516 31.8293Q72.3096 32.1113 71.936 32.4995Q71.5625 32.8877 71.394 33.1953Q71.394 33.9424 71.5039 34.6455Q71.6138 35.3486 71.8848 35.9126Q72.1558 36.4766 72.6355 36.8062Q73.1152 37.1357 73.855 37.1357ZM82.4902 29.8408Q83.9258 29.8408 84.6216 30.4854Q85.3174 31.1299 85.3174 32.5435L85.3174 38L84.4312 38L84.1968 36.8135L84.1382 36.8135Q83.8013 37.2529 83.4351 37.5496Q83.0688 37.8462 82.5891 37.9963Q82.1094 38.1465 81.4136 38.1465Q80.6812 38.1465 80.1135 37.8901Q79.5459 37.6338 79.22 37.1138Q78.894 36.5938 78.894 35.7954Q78.894 34.5942 79.8462 33.9497Q80.7983 33.3052 82.7466 33.2466L84.1309 33.188L84.1309 32.6973Q84.1309 31.6572 83.6841 31.2397Q83.2373 30.8223 82.4243 30.8223Q81.7944 30.8223 81.2231 31.0054Q80.6519 31.1885 80.1392 31.4375L79.7656 30.5146Q80.3076 30.2363 81.0107 30.0386Q81.7139 29.8408 82.4902 29.8408ZM84.1162 34.0449L82.8931 34.0962Q81.3916 34.1548 80.7764 34.5869Q80.1611 35.019 80.1611 35.8101Q80.1611 36.4985 80.5786 36.8281Q80.9961 37.1577 81.6846 37.1577Q82.7539 37.1577 83.4351 36.5645Q84.1162 35.9712 84.1162 34.7847L84.1162 34.0449ZM94.2017 31.9868Q94.2017 32.7412 93.7622 33.1624Q93.3228 33.5835 92.627 33.73L92.627 33.7886Q93.3813 33.8911 93.927 34.3269Q94.4727 34.7627 94.4727 35.6562Q94.4727 36.3447 94.1431 36.8721Q93.8135 37.3994 93.1104 37.6997Q92.4072 38 91.2793 38L87.8223 38L87.8223 29.9727L91.25 29.9727Q92.1143 29.9727 92.7771 30.1667Q93.4399 30.3608 93.8208 30.8003Q94.2017 31.2397 94.2017 31.9868ZM93.2056 35.6562Q93.2056 34.9458 92.6672 34.6309Q92.1289 34.3159 91.1035 34.3159L89.0454 34.3159L89.0454 37.0112L91.1328 37.0112Q92.1436 37.0112 92.6746 36.7Q93.2056 36.3887 93.2056 35.6562ZM92.9639 32.126Q92.9639 31.5547 92.5464 31.2727Q92.1289 30.9907 91.1768 30.9907L89.0454 30.9907L89.0454 33.2979L90.9644 33.2979Q91.9531 33.2979 92.4585 33.0122Q92.9639 32.7266 92.9639 32.126ZM97.5928 29.9727L97.5928 35.019Q97.5928 35.1655 97.5854 35.3962Q97.5781 35.627 97.5635 35.887Q97.5488 36.147 97.5378 36.385Q97.5269 36.623 97.5122 36.7769L101.892 29.9727L103.386 29.9727L103.386 38L102.251 38L102.251 33.0781Q102.251 32.8438 102.258 32.4775Q102.266 32.1113 102.28 31.7561Q102.295 31.4009 102.302 31.2031L97.937 38L96.4355 38L96.4355 29.9727L97.5928 29.9727ZM111.443 31.0054L108.799 31.0054L108.799 38L107.598 38L107.598 31.0054L104.99 31.0054L104.99 29.9727L111.443 29.9727L111.443 31.0054ZM114.255 33.2832L116.716 33.2832Q117.742 33.2832 118.423 33.5396Q119.104 33.7959 119.445 34.3013Q119.785 34.8066 119.785 35.5537Q119.785 36.3008 119.452 36.8501Q119.119 37.3994 118.427 37.6997Q117.734 38 116.643 38L113.032 38L113.032 29.9727L114.255 29.9727L114.255 33.2832ZM118.562 35.6123Q118.562 34.8726 118.038 34.5833Q117.515 34.2939 116.577 34.2939L114.255 34.2939L114.255 37.0112L116.584 37.0112Q117.463 37.0112 118.013 36.6853Q118.562 36.3594 118.562 35.6123Z" fill="#FFFFFF" fill-opacity="1.000000" fill-rule="evenodd"/>
	</g>
	<circle id="Ellipse 50" cx="145.000000" cy="12.000000" r="12.000000" fill="#FFFFFF" fill-opacity="1.000000"/>
	<circle id="Ellipse 50" cx="145.000000" cy="12.000000" r="11.586206" stroke="#2F74FA" stroke-opacity="1.000000" stroke-width="0.827586"/>
	<path id="+" d="M146.128 11.522L148.625 11.522L148.625 12.3464L146.128 12.3464L146.128 14.9164L145.297 14.9164L145.297 12.3464L142.8 12.3464L142.8 11.522L145.297 11.522L145.297 8.93986L146.128 8.93986L146.128 11.522Z" fill="#2F74FA" fill-opacity="1.000000" fill-rule="evenodd"/>
</svg>
