<svg width="260.000000" height="56.000000" viewBox="0 0 260 56" fill="none" xmlns="http://www.w3.org/2000/svg" xmlns:xlink="http://www.w3.org/1999/xlink">
	<desc>
			Created with Pixso.
	</desc>
	<defs>
		<clipPath id="clip374_5009">
			<rect id="Frame 111" rx="5.000000" width="260.000000" height="44.000000" transform="translate(0.000000 12.000000)" fill="white" fill-opacity="0"/>
		</clipPath>
	</defs>
	<rect id="Frame 111" rx="5.000000" width="260.000000" height="44.000000" transform="translate(0.000000 12.000000)" fill="#2F74FA" fill-opacity="1.000000"/>
	<g clip-path="url(#clip374_5009)">
		<path id="Добавить модератора" d="M70.4785 30.2546Q70.1489 31.4668 70.1489 33.1807Q70.1489 34.3672 70.3943 35.29Q70.6396 36.2129 71.1047 36.8501Q71.4472 37.3193 71.9008 37.6216Q72.0632 37.73 72.24 37.8169Q72.9102 38.1465 73.7598 38.1465Q74.8584 38.1465 75.6714 37.696Q75.9074 37.5653 76.1128 37.3972Q76.6151 36.9862 76.9348 36.3521Q77.3853 35.4585 77.3853 34.1475Q77.3853 33.0562 77.0337 32.2432Q76.7893 31.6781 76.3787 31.2882Q76.1985 31.1171 75.9863 30.9797Q75.2905 30.5293 74.2505 30.5293Q73.5913 30.5293 73.064 30.738Q72.5366 30.9468 72.1558 31.2617Q71.7749 31.5767 71.5552 31.8989L71.4673 31.8989Q71.5186 30.7856 71.7786 30.0532Q72.0386 29.3208 72.489 28.9033Q72.6189 28.7829 72.7632 28.6832Q73.119 28.4372 73.562 28.3174Q73.9062 28.2148 74.353 28.116Q74.7998 28.0171 75.3052 27.9255Q75.8105 27.834 76.3159 27.7498Q76.8213 27.6655 77.2827 27.5996L77.0703 26.5303Q76.1548 26.6694 75.188 26.8562Q74.2212 27.043 73.2837 27.2993Q72.3843 27.5227 71.756 28.0619Q71.622 28.1769 71.5002 28.3064Q70.8081 29.0425 70.4785 30.2546ZM58.5986 36.8867L58.5986 27.292L53.7134 27.292Q53.6475 28.4785 53.4094 29.7676Q53.1714 31.0566 52.7942 32.3347Q52.417 33.6128 51.9373 34.781Q51.4575 35.9492 50.9082 36.8867L50.0879 36.8867L50.0879 40.7979L51.2817 40.7979L51.2817 38L58.7231 38L58.7231 40.7979L59.917 40.7979L59.917 36.8867L58.5986 36.8867ZM54.812 28.4126L57.3608 28.4126L57.3608 36.8867L52.2266 36.8867Q52.71 36.0518 53.1458 34.9751Q53.5815 33.8984 53.9368 32.7266Q54.292 31.5547 54.519 30.4377Q54.7461 29.3208 54.812 28.4126ZM68.208 35.7368Q68.4644 34.9604 68.4644 33.9717Q68.4644 32.6606 68.0066 31.7341Q67.673 31.0589 67.1449 30.6152Q66.9484 30.45 66.7249 30.3169Q66.6871 30.2944 66.6487 30.2729Q65.8505 29.8262 64.8022 29.8262Q63.6523 29.8262 62.821 30.3132Q62.5636 30.4641 62.343 30.6571Q61.8514 31.0873 61.543 31.7268Q61.0962 32.6533 61.0962 33.9717Q61.0962 34.9604 61.3635 35.7368Q61.6309 36.5132 62.1179 37.0479Q62.3476 37.3 62.618 37.4959Q62.921 37.7155 63.2751 37.8645Q63.9453 38.1465 64.751 38.1465Q65.6152 38.1465 66.3 37.8645Q66.7374 37.6844 67.0925 37.4013Q67.2935 37.2411 67.4683 37.0479Q67.9517 36.5132 68.208 35.7368ZM143.442 35.7368Q143.699 34.9604 143.699 33.9717Q143.699 32.6606 143.241 31.7341Q142.907 31.0589 142.379 30.6152Q142.183 30.45 141.959 30.3169Q141.921 30.2944 141.883 30.2729Q141.085 29.8262 140.037 29.8262Q138.887 29.8262 138.055 30.3132Q137.798 30.4641 137.577 30.6571Q137.086 31.0873 136.777 31.7268Q136.331 32.6533 136.331 33.9717Q136.331 34.9604 136.598 35.7368Q136.865 36.5132 137.352 37.0479Q137.582 37.3 137.852 37.4959Q138.155 37.7155 138.51 37.8645Q139.18 38.1465 139.985 38.1465Q140.85 38.1465 141.534 37.8645Q141.972 37.6844 142.327 37.4013Q142.528 37.2411 142.703 37.0479Q143.186 36.5132 143.442 35.7368ZM159.27 30.2803Q158.538 29.8262 157.512 29.8262Q156.557 29.8262 155.824 30.2293Q155.731 30.2808 155.641 30.3389Q155.487 30.4382 155.346 30.554Q154.762 31.0354 154.41 31.8Q153.975 32.7485 153.975 34.0449Q153.975 35.3706 154.451 36.2861Q154.759 36.8783 155.227 37.285Q155.483 37.5072 155.787 37.6741Q156.648 38.1465 157.805 38.1465Q158.618 38.1465 159.215 38.022Q159.812 37.8975 160.42 37.6265L160.42 36.5571Q159.79 36.8281 159.204 36.9673Q158.618 37.1064 157.856 37.1064Q156.861 37.1064 156.226 36.6284Q156.071 36.5118 155.938 36.3667Q155.256 35.627 155.234 34.2134L160.779 34.2134L160.779 33.459Q160.779 32.3677 160.391 31.551Q160.138 31.0202 159.741 30.6426Q159.526 30.4392 159.27 30.2803ZM168.279 30.2434Q167.571 29.8262 166.616 29.8262Q165.95 29.8262 165.463 30.0056Q164.976 30.1851 164.639 30.489Q164.302 30.793 164.067 31.1592L164.009 31.1592L163.848 29.9727L162.844 29.9727L162.844 41.5889L164.067 41.5889L164.067 38.293Q164.067 37.9927 164.034 37.5898Q164.001 37.187 163.979 36.9014L164.067 36.9014Q164.294 37.2383 164.639 37.5239Q164.983 37.8096 165.466 37.978Q165.95 38.1465 166.587 38.1465Q167.503 38.1465 168.2 37.7554Q168.271 37.715 168.341 37.6704Q168.415 37.6231 168.486 37.5712Q169.125 37.1018 169.495 36.2642Q169.905 35.334 169.905 33.9644Q169.905 31.8916 169.011 30.8589Q168.686 30.4826 168.279 30.2434ZM194.082 35.7368Q194.338 34.9604 194.338 33.9717Q194.338 32.6606 193.881 31.7341Q193.547 31.0589 193.019 30.6152Q192.822 30.45 192.599 30.3169Q192.561 30.2944 192.523 30.2729Q191.725 29.8262 190.676 29.8262Q189.526 29.8262 188.695 30.3132Q188.438 30.4641 188.217 30.6571Q187.725 31.0873 187.417 31.7268Q186.97 32.6533 186.97 33.9717Q186.97 34.9604 187.238 35.7368Q187.505 36.5132 187.992 37.0479Q188.222 37.3 188.492 37.4959Q188.795 37.7155 189.149 37.8645Q189.819 38.1465 190.625 38.1465Q191.489 38.1465 192.174 37.8645Q192.611 37.6844 192.967 37.4013Q193.168 37.2411 193.342 37.0479Q193.826 36.5132 194.082 35.7368ZM201.875 30.2434Q201.167 29.8262 200.212 29.8262Q199.546 29.8262 199.059 30.0056Q198.572 30.1851 198.235 30.489Q197.898 30.793 197.664 31.1592L197.605 31.1592L197.444 29.9727L196.44 29.9727L196.44 41.5889L197.664 41.5889L197.664 38.293Q197.664 37.9927 197.631 37.5898Q197.598 37.187 197.576 36.9014L197.664 36.9014Q197.891 37.2383 198.235 37.5239Q198.579 37.8096 199.062 37.978Q199.546 38.1465 200.183 38.1465Q201.099 38.1465 201.796 37.7554Q201.868 37.715 201.937 37.6704Q202.011 37.6231 202.082 37.5712Q202.721 37.1018 203.091 36.2642Q203.501 35.334 203.501 33.9644Q203.501 31.8916 202.607 30.8589Q202.282 30.4826 201.875 30.2434ZM84.6216 30.4854Q83.9258 29.8408 82.4902 29.8408Q81.7139 29.8408 81.0107 30.0386Q80.3076 30.2363 79.7656 30.5146L80.1392 31.4375Q80.6519 31.1885 81.2231 31.0054L81.2248 31.0048Q81.7953 30.8223 82.4243 30.8223Q83.2092 30.8223 83.6527 31.2113Q83.6686 31.2253 83.6841 31.2397Q84.1309 31.6572 84.1309 32.6973L84.1309 33.188L82.7466 33.2466Q80.7983 33.3052 79.8462 33.9497Q79.4174 34.24 79.1817 34.6431Q78.894 35.1352 78.894 35.7954Q78.894 36.5938 79.22 37.1138Q79.3686 37.3509 79.5675 37.5332Q79.8047 37.7507 80.1135 37.8901Q80.6812 38.1465 81.4136 38.1465Q82.1094 38.1465 82.5891 37.9963Q83.0426 37.8544 83.3947 37.5816Q83.415 37.5658 83.4351 37.5496Q83.8013 37.2529 84.1382 36.8135L84.1968 36.8135L84.4312 38L85.3174 38L85.3174 32.5435Q85.3174 31.1299 84.6216 30.4854ZM177.156 30.4854Q176.46 29.8408 175.024 29.8408Q174.248 29.8408 173.545 30.0386Q172.842 30.2363 172.3 30.5146L172.673 31.4375Q173.186 31.1885 173.757 31.0054L173.759 31.0048Q174.33 30.8223 174.958 30.8223Q175.743 30.8223 176.187 31.2113Q176.203 31.2253 176.218 31.2397Q176.665 31.6572 176.665 32.6973L176.665 33.188L175.281 33.2466Q173.333 33.3052 172.38 33.9497Q171.952 34.24 171.716 34.6431Q171.428 35.1352 171.428 35.7954Q171.428 36.5938 171.754 37.1138Q171.903 37.3509 172.102 37.5332Q172.339 37.7507 172.648 37.8901Q173.215 38.1465 173.948 38.1465Q174.644 38.1465 175.123 37.9963Q175.577 37.8544 175.929 37.5816Q175.949 37.5658 175.969 37.5496Q176.335 37.2529 176.672 36.8135L176.731 36.8135L176.965 38L177.852 38L177.852 32.5435Q177.852 31.1299 177.156 30.4854ZM210.752 30.4854Q210.056 29.8408 208.621 29.8408Q207.844 29.8408 207.141 30.0386Q206.438 30.2363 205.896 30.5146L206.27 31.4375Q206.782 31.1885 207.354 31.0054L207.355 31.0048Q207.926 30.8223 208.555 30.8223Q209.34 30.8223 209.783 31.2113Q209.799 31.2253 209.814 31.2397Q210.261 31.6572 210.261 32.6973L210.261 33.188L208.877 33.2466Q206.929 33.3052 205.977 33.9497Q205.548 34.24 205.312 34.6431Q205.024 35.1352 205.024 35.7954Q205.024 36.5938 205.35 37.1138Q205.499 37.3509 205.698 37.5332Q205.935 37.7507 206.244 37.8901Q206.812 38.1465 207.544 38.1465Q208.24 38.1465 208.719 37.9963Q209.173 37.8544 209.525 37.5816Q209.545 37.5658 209.565 37.5496Q209.932 37.2529 210.269 36.8135L210.327 36.8135L210.562 38L211.448 38L211.448 32.5435Q211.448 31.1299 210.752 30.4854ZM93.9015 33.0062Q94.2017 32.6103 94.2017 31.9868Q94.2017 31.2705 93.8515 30.837Q93.8365 30.8184 93.8208 30.8003L93.8185 30.7976Q93.4379 30.3602 92.7771 30.1667Q92.1143 29.9727 91.25 29.9727L87.8223 29.9727L87.8223 38L91.2793 38Q92.4072 38 93.1104 37.6997Q93.8135 37.3994 94.1431 36.8721Q94.201 36.7794 94.2487 36.6817Q94.4727 36.2237 94.4727 35.6562Q94.4727 34.9358 94.1179 34.5129Q94.0327 34.4113 93.927 34.3269Q93.8165 34.2386 93.6973 34.164Q93.2285 33.8703 92.627 33.7886L92.627 33.73Q93.3079 33.5866 93.7433 33.1802Q93.7528 33.1714 93.7622 33.1624Q93.8384 33.0893 93.9015 33.0062ZM97.5928 35.019L97.5928 29.9727L96.4355 29.9727L96.4355 38L97.937 38L102.302 31.2031Q102.295 31.4009 102.28 31.7561Q102.266 32.1113 102.258 32.4775Q102.251 32.8438 102.251 33.0781L102.251 38L103.386 38L103.386 29.9727L101.892 29.9727L97.5122 36.7769Q97.5269 36.623 97.5378 36.385Q97.5488 36.147 97.5635 35.887Q97.5781 35.627 97.5854 35.3962Q97.5928 35.1655 97.5928 35.019ZM108.799 31.0054L111.443 31.0054L111.443 29.9727L104.99 29.9727L104.99 31.0054L107.598 31.0054L107.598 38L108.799 38L108.799 31.0054ZM116.716 33.2832L114.255 33.2832L114.255 29.9727L113.032 29.9727L113.032 38L116.643 38Q117.734 38 118.427 37.6997Q119.056 37.4265 119.389 36.9471Q119.422 36.8996 119.452 36.8501Q119.457 36.8412 119.463 36.8323Q119.785 36.2887 119.785 35.5537Q119.785 34.8066 119.445 34.3013Q119.426 34.2733 119.406 34.2461Q119.066 33.7817 118.423 33.5396Q117.742 33.2832 116.716 33.2832ZM134.25 38L134.25 29.9727L132.625 29.9727L129.995 36.5352L127.402 29.9727L125.769 29.9727L125.769 38L126.875 38L126.875 32.8145Q126.875 32.4482 126.864 32.115Q126.853 31.7817 126.831 31.4448L126.875 31.4448L129.475 38L130.508 38L133.174 31.4448L133.218 31.4448Q133.188 31.7817 133.17 32.115Q133.152 32.4482 133.152 32.7705L133.152 38L134.25 38ZM151.682 36.9673L151.682 29.9727L147.515 29.9727Q147.506 30.7396 147.417 31.4973Q147.359 31.9986 147.266 32.4958Q147.031 33.7446 146.577 34.8799Q146.123 36.0151 145.435 36.9673L144.805 36.9673L144.805 40.7759L145.969 40.7759L145.969 38L151.653 38L151.653 40.7759L152.832 40.7759L152.832 36.9673L151.682 36.9673ZM183.184 31.0054L185.828 31.0054L185.828 29.9727L179.375 29.9727L179.375 31.0054L181.982 31.0054L181.982 38L183.184 38L183.184 31.0054ZM156.349 31.1212Q156.83 30.8223 157.498 30.8223Q158.186 30.8223 158.625 31.1262Q158.726 31.1955 158.814 31.2774Q159.114 31.5546 159.281 31.9758Q159.497 32.5215 159.504 33.2393L155.256 33.2393Q155.366 32.0967 155.945 31.4595Q156.127 31.2587 156.349 31.1212ZM62.6123 35.6489Q62.356 34.9385 62.356 33.9717Q62.356 32.5068 62.9382 31.6792Q63.0896 31.4641 63.2862 31.3049Q63.846 30.8516 64.7729 30.8516Q65.6226 30.8516 66.1572 31.2324Q66.2393 31.2909 66.3148 31.3568Q66.7312 31.7206 66.9482 32.3127Q67.2046 33.0122 67.2046 33.9717Q67.2046 34.9385 66.9482 35.6489Q66.7292 36.2559 66.3044 36.6277Q66.232 36.691 66.1536 36.7476Q65.6152 37.1357 64.7803 37.1357Q63.938 37.1357 63.4033 36.7476Q63.3334 36.6968 63.2682 36.6405Q62.8351 36.2665 62.6123 35.6489ZM137.847 35.6489Q137.59 34.9385 137.59 33.9717Q137.59 32.5068 138.173 31.6792Q138.324 31.4641 138.521 31.3049Q139.08 30.8516 140.007 30.8516Q140.857 30.8516 141.392 31.2324Q141.474 31.2909 141.549 31.3568Q141.966 31.7206 142.183 32.3127Q142.439 33.0122 142.439 33.9717Q142.439 34.9385 142.183 35.6489Q141.964 36.2559 141.539 36.6277Q141.466 36.691 141.388 36.7476Q140.85 37.1357 140.015 37.1357Q139.172 37.1357 138.638 36.7476Q138.568 36.6968 138.503 36.6405Q138.07 36.2665 137.847 35.6489ZM165.06 31.1738Q165.569 30.8516 166.404 30.8516Q167.136 30.8516 167.626 31.1962Q167.901 31.3891 168.099 31.6902Q168.652 32.5288 168.652 33.9497Q168.652 34.8872 168.407 35.6086Q168.162 36.3301 167.664 36.7329Q167.579 36.8016 167.486 36.8586Q167.038 37.1357 166.418 37.1357Q165.547 37.1357 165.031 36.7695Q164.958 36.7183 164.892 36.6604Q164.483 36.3049 164.291 35.7002Q164.067 34.9971 164.067 33.979L164.067 33.7446Q164.082 32.7778 164.316 32.137Q164.502 31.6306 164.858 31.3231Q164.953 31.2415 165.06 31.1738ZM188.486 35.6489Q188.23 34.9385 188.23 33.9717Q188.23 32.5068 188.812 31.6792Q188.964 31.4641 189.16 31.3049Q189.72 30.8516 190.647 30.8516Q191.497 30.8516 192.031 31.2324Q192.113 31.2909 192.189 31.3568Q192.605 31.7206 192.822 32.3127Q193.079 33.0122 193.079 33.9717Q193.079 34.9385 192.822 35.6489Q192.603 36.2559 192.178 36.6277Q192.106 36.691 192.028 36.7476Q191.489 37.1357 190.654 37.1357Q189.812 37.1357 189.277 36.7476Q189.207 36.6968 189.142 36.6405Q188.709 36.2665 188.486 35.6489ZM198.656 31.1738Q199.165 30.8516 200 30.8516Q200.732 30.8516 201.223 31.1962Q201.497 31.3891 201.696 31.6902Q202.249 32.5288 202.249 33.9497Q202.249 34.8872 202.003 35.6086Q201.758 36.3301 201.26 36.7329Q201.175 36.8016 201.083 36.8586Q200.634 37.1357 200.015 37.1357Q199.143 37.1357 198.627 36.7695Q198.554 36.7183 198.488 36.6604Q198.079 36.3049 197.887 35.7002Q197.664 34.9971 197.664 33.979L197.664 33.7446Q197.678 32.7778 197.913 32.137Q198.098 31.6306 198.454 31.3231Q198.549 31.2415 198.656 31.1738ZM148.599 30.9395L150.503 30.9395L150.503 36.9673L146.702 36.9673Q147.236 36.2202 147.639 35.2205Q148.042 34.2207 148.287 33.1147Q148.533 32.0088 148.599 30.9395ZM92.7925 31.5127Q92.9639 31.76 92.9639 32.126Q92.9639 32.4464 92.8201 32.6771Q92.6943 32.8789 92.4585 33.0122Q91.9531 33.2979 90.9644 33.2979L89.0454 33.2979L89.0454 30.9907L91.1768 30.9907Q92.1289 30.9907 92.5464 31.2727Q92.6964 31.374 92.7925 31.5127ZM75.0525 36.8428Q74.5508 37.1357 73.855 37.1357Q73.1152 37.1357 72.6355 36.8062Q72.524 36.7296 72.4238 36.6403Q72.0928 36.3455 71.8848 35.9126Q71.6138 35.3486 71.5039 34.6455Q71.394 33.9424 71.394 33.1953Q71.5625 32.8877 71.936 32.4995Q72.3096 32.1113 72.8516 31.8293Q72.9202 31.7936 72.9908 31.7625Q73.4779 31.5474 74.0601 31.5474Q74.8347 31.5474 75.3038 31.926Q75.4822 32.07 75.6165 32.2688Q76.1035 32.9902 76.1035 34.2646Q76.1035 35.2827 75.8289 35.9163Q75.5774 36.4964 75.1355 36.7909Q75.0948 36.8181 75.0525 36.8428ZM82.8931 34.0962L84.1162 34.0449L84.1162 34.7847Q84.1162 35.8083 83.6092 36.3904Q83.5286 36.483 83.4351 36.5645Q83.3164 36.6678 83.186 36.7531Q82.5677 37.1577 81.6846 37.1577Q80.9961 37.1577 80.5786 36.8281Q80.5015 36.7672 80.4386 36.6941Q80.1611 36.3713 80.1611 35.8101Q80.1611 35.3674 80.3538 35.0372Q80.5054 34.7772 80.7764 34.5869Q81.3916 34.1548 82.8931 34.0962ZM175.427 34.0962L176.65 34.0449L176.65 34.7847Q176.65 35.8083 176.143 36.3904Q176.063 36.483 175.969 36.5645Q175.851 36.6678 175.72 36.7531Q175.102 37.1577 174.219 37.1577Q173.53 37.1577 173.113 36.8281Q173.036 36.7672 172.973 36.6941Q172.695 36.3713 172.695 35.8101Q172.695 35.3674 172.888 35.0372Q173.04 34.7772 173.311 34.5869Q173.926 34.1548 175.427 34.0962ZM209.023 34.0962L210.247 34.0449L210.247 34.7847Q210.247 35.8083 209.74 36.3904Q209.659 36.483 209.565 36.5645Q209.447 36.6678 209.316 36.7531Q208.698 37.1577 207.815 37.1577Q207.126 37.1577 206.709 36.8281Q206.632 36.7672 206.569 36.6941Q206.292 36.3713 206.292 35.8101Q206.292 35.3674 206.484 35.0372Q206.636 34.7772 206.907 34.5869Q207.522 34.1548 209.023 34.0962ZM118.307 34.7988Q118.562 35.0957 118.562 35.6123Q118.562 36.1029 118.325 36.4119Q118.201 36.5734 118.013 36.6853Q117.463 37.0112 116.584 37.0112L114.255 37.0112L114.255 34.2939L116.577 34.2939Q117.515 34.2939 118.038 34.5833Q118.196 34.6705 118.307 34.7988ZM92.9921 34.9183Q93.2056 35.2089 93.2056 35.6562Q93.2056 36.1481 92.9661 36.45Q92.849 36.5977 92.6746 36.7Q92.1436 37.0112 91.1328 37.0112L89.0454 37.0112L89.0454 34.3159L91.1035 34.3159Q92.1289 34.3159 92.6672 34.6309Q92.8666 34.7475 92.9921 34.9183Z" fill="#FFFFFF" fill-opacity="1.000000" fill-rule="evenodd"/>
	</g>
	<circle id="Ellipse 50" cx="236.000000" cy="12.000000" r="12.000000" fill="#FFFFFF" fill-opacity="1.000000"/>
	<circle id="Ellipse 50" cx="236.000000" cy="12.000000" r="11.586206" stroke="#2F74FA" stroke-opacity="1.000000" stroke-width="0.827586"/>
	<path id="+" d="M239.625 11.522L237.128 11.522L237.128 8.93986L236.297 8.93986L236.297 11.522L233.8 11.522L233.8 12.3464L236.297 12.3464L236.297 14.9164L237.128 14.9164L237.128 12.3464L239.625 12.3464L239.625 11.522Z" fill="#2F74FA" fill-opacity="1.000000" fill-rule="evenodd"/>
</svg>
