<svg width="180.000000" height="56.000000" viewBox="0 0 180 56" fill="none" xmlns="http://www.w3.org/2000/svg" xmlns:xlink="http://www.w3.org/1999/xlink">
	<desc>
			Created with Pixso.
	</desc>
	<defs>
		<clipPath id="clip1_14682">
			<rect id="Frame 123" rx="5.000000" width="180.000000" height="44.000000" transform="translate(0.000000 12.000000)" fill="white" fill-opacity="0"/>
		</clipPath>
	</defs>
	<rect id="Frame 123" rx="5.000000" width="180.000000" height="44.000000" transform="translate(0.000000 12.000000)" fill="#2F74FA" fill-opacity="1.000000"/>
	<g clip-path="url(#clip1_14682)">
		<path id="Добавить новый" d="M37.5986 28.292L37.5986 37.8867L38.917 37.8867L38.917 41.7979L37.7231 41.7979L37.7231 39L30.2817 39L30.2817 41.7979L29.0879 41.7979L29.0879 37.8867L29.9082 37.8867Q30.4575 36.9492 30.9373 35.781Q31.417 34.6128 31.7942 33.3347Q32.1714 32.0566 32.4094 30.7676Q32.6475 29.4785 32.7134 28.292L37.5986 28.292ZM36.3608 29.4126L33.812 29.4126Q33.7461 30.3208 33.519 31.4377Q33.292 32.5547 32.9368 33.7266Q32.5815 34.8984 32.1458 35.9751Q31.71 37.0518 31.2266 37.8867L36.3608 37.8867L36.3608 29.4126ZM47.4644 34.9717Q47.4644 35.9604 47.208 36.7368Q46.9517 37.5132 46.4683 38.0479Q45.9849 38.5825 45.3 38.8645Q44.6152 39.1465 43.751 39.1465Q42.9453 39.1465 42.2751 38.8645Q41.605 38.5825 41.1179 38.0479Q40.6309 37.5132 40.3635 36.7368Q40.0962 35.9604 40.0962 34.9717Q40.0962 33.6533 40.543 32.7268Q40.9897 31.8003 41.821 31.3132Q42.6523 30.8262 43.8022 30.8262Q44.9009 30.8262 45.7249 31.3169Q46.5488 31.8076 47.0066 32.7341Q47.4644 33.6606 47.4644 34.9717ZM41.356 34.9717Q41.356 35.9385 41.6123 36.6489Q41.8687 37.3594 42.4033 37.7476Q42.938 38.1357 43.7803 38.1357Q44.6152 38.1357 45.1536 37.7476Q45.6919 37.3594 45.9482 36.6489Q46.2046 35.9385 46.2046 34.9717Q46.2046 34.0122 45.9482 33.3127Q45.6919 32.6133 45.1572 32.2324Q44.6226 31.8516 43.7729 31.8516Q42.5205 31.8516 41.9382 32.6792Q41.356 33.5068 41.356 34.9717ZM49.1489 34.1807Q49.1489 32.4668 49.4785 31.2546Q49.8081 30.0425 50.5002 29.3064Q51.1924 28.5703 52.2837 28.2993Q53.2212 28.043 54.188 27.8562Q55.1548 27.6694 56.0703 27.5303L56.2827 28.5996Q55.8213 28.6655 55.3159 28.7498Q54.8105 28.834 54.3052 28.9255Q53.7998 29.0171 53.353 29.116Q52.9062 29.2148 52.562 29.3174Q51.9395 29.4858 51.489 29.9033Q51.0386 30.3208 50.7786 31.0532Q50.5186 31.7856 50.4673 32.8989L50.5552 32.8989Q50.7749 32.5767 51.1558 32.2617Q51.5366 31.9468 52.064 31.738Q52.5913 31.5293 53.2505 31.5293Q54.2905 31.5293 54.9863 31.9797Q55.6821 32.4302 56.0337 33.2432Q56.3853 34.0562 56.3853 35.1475Q56.3853 36.4585 55.9348 37.3521Q55.4844 38.2456 54.6714 38.696Q53.8584 39.1465 52.7598 39.1465Q51.9102 39.1465 51.24 38.8169Q50.5698 38.4873 50.1047 37.8501Q49.6396 37.2129 49.3943 36.29Q49.1489 35.3672 49.1489 34.1807ZM52.855 38.1357Q53.5508 38.1357 54.0525 37.8428Q54.5542 37.5498 54.8289 36.9163Q55.1035 36.2827 55.1035 35.2646Q55.1035 33.9902 54.6165 33.2688Q54.1294 32.5474 53.0601 32.5474Q52.3936 32.5474 51.8516 32.8293Q51.3096 33.1113 50.936 33.4995Q50.5625 33.8877 50.394 34.1953Q50.394 34.9424 50.5039 35.6455Q50.6138 36.3486 50.8848 36.9126Q51.1558 37.4766 51.6355 37.8062Q52.1152 38.1357 52.855 38.1357ZM61.4902 30.8408Q62.9258 30.8408 63.6216 31.4854Q64.3174 32.1299 64.3174 33.5435L64.3174 39L63.4312 39L63.1968 37.8135L63.1382 37.8135Q62.8013 38.2529 62.4351 38.5496Q62.0688 38.8462 61.5891 38.9963Q61.1094 39.1465 60.4136 39.1465Q59.6812 39.1465 59.1135 38.8901Q58.5459 38.6338 58.22 38.1138Q57.894 37.5938 57.894 36.7954Q57.894 35.5942 58.8462 34.9497Q59.7983 34.3052 61.7466 34.2466L63.1309 34.188L63.1309 33.6973Q63.1309 32.6572 62.6841 32.2397Q62.2373 31.8223 61.4243 31.8223Q60.7944 31.8223 60.2231 32.0054Q59.6519 32.1885 59.1392 32.4375L58.7656 31.5146Q59.3076 31.2363 60.0107 31.0386Q60.7139 30.8408 61.4902 30.8408ZM63.1162 35.0449L61.8931 35.0962Q60.3916 35.1548 59.7764 35.5869Q59.1611 36.019 59.1611 36.8101Q59.1611 37.4985 59.5786 37.8281Q59.9961 38.1577 60.6846 38.1577Q61.7539 38.1577 62.4351 37.5645Q63.1162 36.9712 63.1162 35.7847L63.1162 35.0449ZM73.2017 32.9868Q73.2017 33.7412 72.7622 34.1624Q72.3228 34.5835 71.627 34.73L71.627 34.7886Q72.3813 34.8911 72.927 35.3269Q73.4727 35.7627 73.4727 36.6562Q73.4727 37.3447 73.1431 37.8721Q72.8135 38.3994 72.1104 38.6997Q71.4072 39 70.2793 39L66.8223 39L66.8223 30.9727L70.25 30.9727Q71.1143 30.9727 71.7771 31.1667Q72.4399 31.3608 72.8208 31.8003Q73.2017 32.2397 73.2017 32.9868ZM72.2056 36.6562Q72.2056 35.9458 71.6672 35.6309Q71.1289 35.3159 70.1035 35.3159L68.0454 35.3159L68.0454 38.0112L70.1328 38.0112Q71.1436 38.0112 71.6746 37.7Q72.2056 37.3887 72.2056 36.6562ZM71.9639 33.126Q71.9639 32.5547 71.5464 32.2727Q71.1289 31.9907 70.1768 31.9907L68.0454 31.9907L68.0454 34.2979L69.9644 34.2979Q70.9531 34.2979 71.4585 34.0122Q71.9639 33.7266 71.9639 33.126ZM76.5928 30.9727L76.5928 36.019Q76.5928 36.1655 76.5854 36.3962Q76.5781 36.627 76.5635 36.887Q76.5488 37.147 76.5378 37.385Q76.5269 37.623 76.5122 37.7769L80.8921 30.9727L82.3862 30.9727L82.3862 39L81.251 39L81.251 34.0781Q81.251 33.8438 81.2583 33.4775Q81.2656 33.1113 81.2803 32.7561Q81.2949 32.4009 81.3022 32.2031L76.937 39L75.4355 39L75.4355 30.9727L76.5928 30.9727ZM90.4429 32.0054L87.7988 32.0054L87.7988 39L86.5977 39L86.5977 32.0054L83.9902 32.0054L83.9902 30.9727L90.4429 30.9727L90.4429 32.0054ZM93.2554 34.2832L95.7163 34.2832Q96.7417 34.2832 97.4229 34.5396Q98.104 34.7959 98.4446 35.3013Q98.7852 35.8066 98.7852 36.5537Q98.7852 37.3008 98.4519 37.8501Q98.1187 38.3994 97.4265 38.6997Q96.7344 39 95.6431 39L92.0322 39L92.0322 30.9727L93.2554 30.9727L93.2554 34.2832ZM97.562 36.6123Q97.562 35.8726 97.0383 35.5833Q96.5146 35.2939 95.5771 35.2939L93.2554 35.2939L93.2554 38.0112L95.5845 38.0112Q96.4634 38.0112 97.0127 37.6853Q97.562 37.3594 97.562 36.6123ZM106 30.9727L106 34.3418L110.475 34.3418L110.475 30.9727L111.69 30.9727L111.69 39L110.475 39L110.475 35.3745L106 35.3745L106 39L104.776 39L104.776 30.9727L106 30.9727ZM121.19 34.9717Q121.19 35.9604 120.934 36.7368Q120.677 37.5132 120.194 38.0479Q119.71 38.5825 119.026 38.8645Q118.341 39.1465 117.477 39.1465Q116.671 39.1465 116.001 38.8645Q115.331 38.5825 114.844 38.0479Q114.356 37.5132 114.089 36.7368Q113.822 35.9604 113.822 34.9717Q113.822 33.6533 114.269 32.7268Q114.715 31.8003 115.547 31.3132Q116.378 30.8262 117.528 30.8262Q118.626 30.8262 119.45 31.3169Q120.274 31.8076 120.732 32.7341Q121.19 33.6606 121.19 34.9717ZM115.082 34.9717Q115.082 35.9385 115.338 36.6489Q115.594 37.3594 116.129 37.7476Q116.664 38.1357 117.506 38.1357Q118.341 38.1357 118.879 37.7476Q119.417 37.3594 119.674 36.6489Q119.93 35.9385 119.93 34.9717Q119.93 34.0122 119.674 33.3127Q119.417 32.6133 118.883 32.2324Q118.348 31.8516 117.499 31.8516Q116.246 31.8516 115.664 32.6792Q115.082 33.5068 115.082 34.9717ZM129.671 32.9868Q129.671 33.7412 129.232 34.1624Q128.792 34.5835 128.097 34.73L128.097 34.7886Q128.851 34.8911 129.397 35.3269Q129.942 35.7627 129.942 36.6562Q129.942 37.3447 129.613 37.8721Q129.283 38.3994 128.58 38.6997Q127.877 39 126.749 39L123.292 39L123.292 30.9727L126.72 30.9727Q127.584 30.9727 128.247 31.1667Q128.91 31.3608 129.291 31.8003Q129.671 32.2397 129.671 32.9868ZM128.675 36.6562Q128.675 35.9458 128.137 35.6309Q127.599 35.3159 126.573 35.3159L124.515 35.3159L124.515 38.0112L126.603 38.0112Q127.613 38.0112 128.144 37.7Q128.675 37.3887 128.675 36.6562ZM128.434 33.126Q128.434 32.5547 128.016 32.2727Q127.599 31.9907 126.646 31.9907L124.515 31.9907L124.515 34.2979L126.434 34.2979Q127.423 34.2979 127.928 34.0122Q128.434 33.7266 128.434 33.126ZM131.905 39L131.905 30.9727L133.128 30.9727L133.128 34.2832L135.326 34.2832Q136.351 34.2832 137.014 34.5396Q137.677 34.7959 137.999 35.3013Q138.321 35.8066 138.321 36.5537Q138.321 37.3008 138.003 37.8501Q137.684 38.3994 137.007 38.6997Q136.329 39 135.245 39L131.905 39ZM133.128 38.0112L135.128 38.0112Q136.036 38.0112 136.578 37.689Q137.12 37.3667 137.12 36.6123Q137.12 35.8726 136.615 35.5833Q136.109 35.2939 135.165 35.2939L133.128 35.2939L133.128 38.0112ZM139.647 39L139.647 30.9727L140.863 30.9727L140.863 39L139.647 39ZM144.583 30.9727L144.583 36.019Q144.583 36.1655 144.576 36.3962Q144.569 36.627 144.554 36.887Q144.54 37.147 144.529 37.385Q144.518 37.623 144.503 37.7769L148.883 30.9727L150.377 30.9727L150.377 39L149.242 39L149.242 34.0781Q149.242 33.8438 149.249 33.4775Q149.256 33.1113 149.271 32.7561Q149.286 32.4009 149.293 32.2031L144.928 39L143.426 39L143.426 30.9727L144.583 30.9727ZM149.776 27.6694Q149.71 28.4092 149.406 28.9072Q149.103 29.4053 148.517 29.658Q147.931 29.9106 147.015 29.9106Q146.07 29.9106 145.495 29.6653Q144.92 29.4199 144.646 28.9219Q144.371 28.4238 144.32 27.6694L145.462 27.6694Q145.543 28.4751 145.895 28.7681Q146.246 29.061 147.037 29.061Q147.74 29.061 148.143 28.7534Q148.546 28.4458 148.626 27.6694L149.776 27.6694Z" fill="#FFFFFF" fill-opacity="1.000000" fill-rule="evenodd"/>
	</g>
	<circle id="Ellipse 50" cx="157.000000" cy="12.000000" r="12.000000" fill="#FFFFFF" fill-opacity="1.000000"/>
	<circle id="Ellipse 50" cx="157.000000" cy="12.000000" r="11.586206" stroke="#2F74FA" stroke-opacity="1.000000" stroke-width="0.827586"/>
	<path id="+" d="M158.13 11.522L160.627 11.522L160.627 12.3464L158.13 12.3464L158.13 14.9164L157.299 14.9164L157.299 12.3464L154.802 12.3464L154.802 11.522L157.299 11.522L157.299 8.93986L158.13 8.93986L158.13 11.522Z" fill="#2F74FA" fill-opacity="1.000000" fill-rule="evenodd"/>
</svg>
