<svg width="168.000000" height="56.000000" viewBox="0 0 168 56" fill="none" xmlns="http://www.w3.org/2000/svg" xmlns:xlink="http://www.w3.org/1999/xlink">
	<desc>
			Created with Pixso.
	</desc>
	<defs>
		<clipPath id="clip1_7155">
			<rect id="Frame 119" rx="3.000000" width="168.000000" height="44.000000" transform="translate(0.000000 12.000000)" fill="white" fill-opacity="0"/>
		</clipPath>
	</defs>
	<rect id="Frame 119" rx="3.000000" width="168.000000" height="44.000000" transform="translate(0.000000 12.000000)" fill="#2F74FA" fill-opacity="1.000000"/>
	<g clip-path="url(#clip1_7155)">
		<path id="Добавить узел" d="M49.4785 31.2546Q49.1489 32.4668 49.1489 34.1807Q49.1489 35.3672 49.3943 36.29Q49.6396 37.2129 50.1047 37.8501Q50.4472 38.3193 50.9008 38.6216Q51.0632 38.73 51.24 38.8169Q51.9102 39.1465 52.7598 39.1465Q53.8584 39.1465 54.6714 38.696Q54.9074 38.5653 55.1128 38.3972Q55.6151 37.9862 55.9348 37.3521Q56.3853 36.4585 56.3853 35.1475Q56.3853 34.0562 56.0337 33.2432Q55.7893 32.6781 55.3787 32.2882Q55.1985 32.1171 54.9863 31.9797Q54.2905 31.5293 53.2505 31.5293Q52.5913 31.5293 52.064 31.738Q51.5366 31.9468 51.1558 32.2617Q50.7749 32.5767 50.5552 32.8989L50.4673 32.8989Q50.5186 31.7856 50.7786 31.0532Q51.0386 30.3208 51.489 29.9033Q51.6189 29.7829 51.7632 29.6832Q52.119 29.4372 52.562 29.3174Q52.9062 29.2148 53.353 29.116Q53.7998 29.0171 54.3052 28.9255Q54.8105 28.834 55.3159 28.7498Q55.8213 28.6655 56.2827 28.5996L56.0703 27.5303Q55.1548 27.6694 54.188 27.8562Q53.2212 28.043 52.2837 28.2993Q51.3843 28.5227 50.756 29.0619Q50.622 29.1769 50.5002 29.3064Q49.8081 30.0425 49.4785 31.2546ZM37.5986 37.8867L37.5986 28.292L32.7134 28.292Q32.6475 29.4785 32.4094 30.7676Q32.1714 32.0566 31.7942 33.3347Q31.417 34.6128 30.9373 35.781Q30.4575 36.9492 29.9082 37.8867L29.0879 37.8867L29.0879 41.7979L30.2817 41.7979L30.2817 39L37.7231 39L37.7231 41.7979L38.917 41.7979L38.917 37.8867L37.5986 37.8867ZM33.812 29.4126L36.3608 29.4126L36.3608 37.8867L31.2266 37.8867Q31.71 37.0518 32.1458 35.9751Q32.5815 34.8984 32.9368 33.7266Q33.292 32.5547 33.519 31.4377Q33.7461 30.3208 33.812 29.4126ZM47.208 36.7368Q47.4644 35.9604 47.4644 34.9717Q47.4644 33.6606 47.0066 32.7341Q46.673 32.0589 46.1449 31.6152Q45.9484 31.45 45.7249 31.3169Q45.6871 31.2944 45.6487 31.2729Q44.8505 30.8262 43.8022 30.8262Q42.6523 30.8262 41.821 31.3132Q41.5636 31.4641 41.343 31.6571Q40.8514 32.0873 40.543 32.7268Q40.0962 33.6533 40.0962 34.9717Q40.0962 35.9604 40.3635 36.7368Q40.6309 37.5132 41.1179 38.0479Q41.3476 38.3 41.618 38.4959Q41.921 38.7155 42.2751 38.8645Q42.9453 39.1465 43.751 39.1465Q44.6152 39.1465 45.3 38.8645Q45.7374 38.6844 46.0925 38.4013Q46.2936 38.2411 46.4683 38.0479Q46.9517 37.5132 47.208 36.7368ZM115.917 31.0715Q115.257 30.8262 114.356 30.8262Q113.609 30.8262 112.921 30.9653Q112.287 31.0934 111.704 31.3392Q111.653 31.3605 111.603 31.3828L112.035 32.3569Q112.621 32.1079 113.126 31.9724Q113.631 31.8369 114.291 31.8369Q115.177 31.8369 115.653 32.1335Q115.856 32.2604 115.973 32.443Q116.129 32.6871 116.129 33.0308Q116.129 33.3914 115.964 33.6438Q115.81 33.8784 115.514 34.0195Q114.898 34.3125 113.866 34.3125L112.979 34.3125L112.979 35.3086L114.056 35.3086Q114.833 35.3086 115.342 35.4587Q115.851 35.6089 116.107 35.9202Q116.147 35.9685 116.18 36.0208Q116.363 36.3053 116.363 36.7075Q116.363 37.1458 116.158 37.441Q116.119 37.4961 116.074 37.5461Q115.785 37.8647 115.294 38.0076Q114.803 38.1504 114.188 38.1504Q113.39 38.1504 112.701 37.96Q112.013 37.7695 111.5 37.5205L111.5 38.6265Q111.808 38.7876 112.218 38.9048Q112.628 39.022 113.133 39.0842Q113.639 39.1465 114.203 39.1465Q115.345 39.1465 116.092 38.8389Q116.839 38.5312 117.206 37.9929Q117.352 37.777 117.44 37.5392Q117.572 37.1843 117.572 36.7808Q117.572 36.1875 117.334 35.7883Q117.223 35.603 117.078 35.4508Q116.91 35.2752 116.697 35.1438Q116.297 34.8984 115.807 34.7666L115.807 34.708Q116.502 34.5176 116.898 34.0854Q116.947 34.0322 116.989 33.9746Q117.293 33.564 117.293 32.9282Q117.293 32.3832 117.059 31.9724Q117.003 31.8753 116.935 31.7856Q116.576 31.3169 115.917 31.0715ZM124.391 31.2803Q123.658 30.8262 122.633 30.8262Q121.678 30.8262 120.945 31.2293Q120.851 31.2808 120.761 31.3389Q120.607 31.4382 120.467 31.554Q119.882 32.0354 119.531 32.8Q119.095 33.7485 119.095 35.0449Q119.095 36.3706 119.571 37.2861Q119.879 37.8783 120.348 38.285Q120.604 38.5072 120.908 38.6741Q121.769 39.1465 122.926 39.1465Q123.739 39.1465 124.336 39.022Q124.933 38.8975 125.541 38.6265L125.541 37.5571Q124.911 37.8281 124.325 37.9673Q123.739 38.1064 122.977 38.1064Q121.982 38.1064 121.347 37.6284Q121.192 37.5118 121.058 37.3667Q120.377 36.627 120.355 35.2134L125.899 35.2134L125.899 34.459Q125.899 33.3677 125.511 32.551Q125.259 32.0202 124.861 31.6426Q124.647 31.4392 124.391 31.2803ZM63.6216 31.4854Q62.9258 30.8408 61.4902 30.8408Q60.7139 30.8408 60.0107 31.0386Q59.3076 31.2363 58.7656 31.5146L59.1392 32.4375Q59.6519 32.1885 60.2231 32.0054L60.2248 32.0048Q60.7953 31.8223 61.4243 31.8223Q62.2092 31.8223 62.6527 32.2113Q62.6686 32.2253 62.6841 32.2397Q63.1309 32.6572 63.1309 33.6973L63.1309 34.188L61.7466 34.2466Q59.7983 34.3052 58.8462 34.9497Q58.4174 35.24 58.1817 35.6431Q57.894 36.1352 57.894 36.7954Q57.894 37.5938 58.22 38.1138Q58.3686 38.3509 58.5675 38.5332Q58.8047 38.7507 59.1135 38.8901Q59.6812 39.1465 60.4136 39.1465Q61.1094 39.1465 61.5891 38.9963Q62.0426 38.8544 62.3947 38.5816Q62.415 38.5658 62.4351 38.5496Q62.8013 38.2529 63.1382 37.8135L63.1968 37.8135L63.4312 39L64.3174 39L64.3174 33.5435Q64.3174 32.1299 63.6216 31.4854ZM72.9015 34.0062Q73.2017 33.6103 73.2017 32.9868Q73.2017 32.2705 72.8515 31.837Q72.8365 31.8184 72.8208 31.8003L72.8185 31.7976Q72.4379 31.3602 71.7771 31.1667Q71.1143 30.9727 70.25 30.9727L66.8223 30.9727L66.8223 39L70.2793 39Q71.4072 39 72.1104 38.6997Q72.8135 38.3994 73.1431 37.8721Q73.201 37.7794 73.2487 37.6817Q73.4727 37.2237 73.4727 36.6562Q73.4727 35.9358 73.1179 35.5129Q73.0327 35.4113 72.927 35.3269Q72.8165 35.2386 72.6973 35.164Q72.2285 34.8703 71.627 34.7886L71.627 34.73Q72.3079 34.5866 72.7433 34.1802Q72.7528 34.1714 72.7622 34.1624Q72.8384 34.0893 72.9015 34.0062ZM76.5928 36.019L76.5928 30.9727L75.4355 30.9727L75.4355 39L76.937 39L81.3022 32.2031Q81.2949 32.4009 81.2803 32.7561Q81.2656 33.1113 81.2583 33.4775Q81.251 33.8438 81.251 34.0781L81.251 39L82.3862 39L82.3862 30.9727L80.8921 30.9727L76.5122 37.7769Q76.5269 37.623 76.5378 37.385Q76.5488 37.147 76.5635 36.887Q76.5781 36.627 76.5854 36.3962Q76.5928 36.1655 76.5928 36.019ZM87.7988 32.0054L90.4429 32.0054L90.4429 30.9727L83.9902 30.9727L83.9902 32.0054L86.5977 32.0054L86.5977 39L87.7988 39L87.7988 32.0054ZM95.7163 34.2832L93.2554 34.2832L93.2554 30.9727L92.0322 30.9727L92.0322 39L95.6431 39Q96.7344 39 97.4265 38.6997Q98.0563 38.4265 98.3889 37.9471Q98.4219 37.8996 98.4519 37.8501Q98.4573 37.8412 98.4626 37.8323Q98.7852 37.2887 98.7852 36.5537Q98.7852 35.8066 98.4446 35.3013Q98.4257 35.2733 98.4058 35.2461Q98.0663 34.7817 97.4229 34.5396Q96.7417 34.2832 95.7163 34.2832ZM104.813 30.9727L103.509 30.9727L106.725 39.0146L106.285 40.1426Q106.109 40.5967 105.868 40.9263Q105.651 41.222 105.36 41.391Q105.327 41.4103 105.293 41.428Q104.959 41.6001 104.505 41.6001Q104.256 41.6001 104.026 41.5708Q103.795 41.5415 103.634 41.5049L103.634 42.479Q103.824 42.5303 104.088 42.5706Q104.352 42.6108 104.696 42.6108Q105.443 42.6108 105.97 42.3142Q106.018 42.2871 106.065 42.258Q106.531 41.9675 106.867 41.4683Q107.237 40.9189 107.516 40.1792L111.009 30.9727L109.698 30.9727L108.021 35.6235Q107.801 36.2461 107.611 36.843Q107.42 37.4399 107.318 37.8062L107.267 37.8062Q107.208 37.4839 107.105 37.1396Q107.003 36.7954 106.871 36.4182Q106.739 36.041 106.585 35.6309L104.813 30.9727ZM132.748 39L133.985 39L133.985 30.9727L129.254 30.9727Q129.151 32.4448 129.016 33.6057Q128.88 34.7666 128.705 35.6199Q128.529 36.4731 128.305 37.0298Q128.082 37.5864 127.807 37.8611Q127.596 38.0724 127.352 38.1211Q127.279 38.1357 127.203 38.1357Q127.086 38.1357 126.98 38.1211Q126.874 38.1064 126.778 38.0771L126.778 39Q126.903 39.0513 127.079 39.0732Q127.254 39.0952 127.452 39.0952Q127.85 39.0952 128.181 38.9463Q128.393 38.8514 128.576 38.696Q129.049 38.2969 129.382 37.4436Q129.715 36.5903 129.939 35.239Q130.162 33.8877 130.309 31.9907L132.748 31.9907L132.748 39ZM121.469 32.1212Q121.951 31.8223 122.618 31.8223Q123.307 31.8223 123.746 32.1262Q123.846 32.1955 123.935 32.2774Q124.235 32.5546 124.402 32.9758Q124.618 33.5215 124.625 34.2393L120.377 34.2393Q120.487 33.0967 121.065 32.4595Q121.248 32.2587 121.469 32.1212ZM41.6123 36.6489Q41.356 35.9385 41.356 34.9717Q41.356 33.5068 41.9382 32.6792Q42.0896 32.4641 42.2862 32.3049Q42.846 31.8516 43.7729 31.8516Q44.6226 31.8516 45.1572 32.2324Q45.2393 32.2909 45.3148 32.3568Q45.7312 32.7206 45.9482 33.3127Q46.2046 34.0122 46.2046 34.9717Q46.2046 35.9385 45.9482 36.6489Q45.7292 37.2559 45.3044 37.6277Q45.232 37.691 45.1536 37.7476Q44.6152 38.1357 43.7803 38.1357Q42.938 38.1357 42.4033 37.7476Q42.3334 37.6968 42.2682 37.6405Q41.8351 37.2665 41.6123 36.6489ZM71.7925 32.5127Q71.9639 32.76 71.9639 33.126Q71.9639 33.4464 71.8201 33.6771Q71.6943 33.8789 71.4585 34.0122Q70.9531 34.2979 69.9644 34.2979L68.0454 34.2979L68.0454 31.9907L70.1768 31.9907Q71.1289 31.9907 71.5464 32.2727Q71.6964 32.374 71.7925 32.5127ZM54.0525 37.8428Q53.5508 38.1357 52.855 38.1357Q52.1152 38.1357 51.6355 37.8062Q51.524 37.7296 51.4238 37.6403Q51.0928 37.3455 50.8848 36.9126Q50.6138 36.3486 50.5039 35.6455Q50.394 34.9424 50.394 34.1953Q50.5625 33.8877 50.936 33.4995Q51.3096 33.1113 51.8516 32.8293Q51.9202 32.7936 51.9908 32.7625Q52.4779 32.5474 53.0601 32.5474Q53.8347 32.5474 54.3038 32.926Q54.4822 33.07 54.6165 33.2688Q55.1035 33.9902 55.1035 35.2646Q55.1035 36.2827 54.8289 36.9163Q54.5774 37.4964 54.1355 37.7909Q54.0948 37.8181 54.0525 37.8428ZM61.8931 35.0962L63.1162 35.0449L63.1162 35.7847Q63.1162 36.8083 62.6092 37.3904Q62.5286 37.483 62.4351 37.5645Q62.3164 37.6678 62.186 37.7531Q61.5677 38.1577 60.6846 38.1577Q59.9961 38.1577 59.5786 37.8281Q59.5015 37.7672 59.4386 37.6941Q59.1611 37.3713 59.1611 36.8101Q59.1611 36.3674 59.3538 36.0372Q59.5054 35.7772 59.7764 35.5869Q60.3916 35.1548 61.8931 35.0962ZM97.3066 35.7988Q97.562 36.0957 97.562 36.6123Q97.562 37.1029 97.3251 37.4119Q97.2013 37.5734 97.0127 37.6853Q96.4634 38.0112 95.5845 38.0112L93.2554 38.0112L93.2554 35.2939L95.5771 35.2939Q96.5146 35.2939 97.0383 35.5833Q97.1963 35.6705 97.3066 35.7988ZM71.9921 35.9183Q72.2056 36.2089 72.2056 36.6562Q72.2056 37.1481 71.9661 37.45Q71.849 37.5977 71.6746 37.7Q71.1436 38.0112 70.1328 38.0112L68.0454 38.0112L68.0454 35.3159L70.1035 35.3159Q71.1289 35.3159 71.6672 35.6309Q71.8666 35.7475 71.9921 35.9183Z" fill="#FFFFFF" fill-opacity="1.000000" fill-rule="evenodd"/>
	</g>
	<circle id="Ellipse 50" cx="142.000000" cy="12.000000" r="12.000000" fill="#FFFFFF" fill-opacity="1.000000"/>
	<circle id="Ellipse 50" cx="142.000000" cy="12.000000" r="11.586206" stroke="#2F74FA" stroke-opacity="1.000000" stroke-width="0.827586"/>
	<path id="+" d="M145.627 11.522L143.13 11.522L143.13 8.93986L142.299 8.93986L142.299 11.522L139.802 11.522L139.802 12.3464L142.299 12.3464L142.299 14.9164L143.13 14.9164L143.13 12.3464L145.627 12.3464L145.627 11.522Z" fill="#2F74FA" fill-opacity="1.000000" fill-rule="evenodd"/>
</svg>
