<svg width="337.000000" height="56.000000" viewBox="0 0 337 56" fill="none" xmlns="http://www.w3.org/2000/svg" xmlns:xlink="http://www.w3.org/1999/xlink">
	<desc>
			Created with Pixso.
	</desc>
	<defs>
		<clipPath id="clip1_7371">
			<rect id="Frame 121" rx="3.000000" width="337.000000" height="44.000000" transform="translate(0.000000 12.000000)" fill="white" fill-opacity="0"/>
		</clipPath>
	</defs>
	<rect id="Frame 121" rx="3.000000" width="337.000000" height="44.000000" transform="translate(0.000000 12.000000)" fill="#2F74FA" fill-opacity="1.000000"/>
	<g clip-path="url(#clip1_7371)">
		<path id="Добавить навигационный элемент" d="M61.4785 31.2546Q61.1489 32.4668 61.1489 34.1807Q61.1489 35.3672 61.3943 36.29Q61.6396 37.2129 62.1047 37.8501Q62.4472 38.3193 62.9008 38.6216Q63.0632 38.73 63.24 38.8169Q63.9102 39.1465 64.7598 39.1465Q65.8584 39.1465 66.6714 38.696Q66.9074 38.5653 67.1128 38.3972Q67.6151 37.9862 67.9348 37.3521Q68.3853 36.4585 68.3853 35.1475Q68.3853 34.0562 68.0337 33.2432Q67.7893 32.6781 67.3787 32.2882Q67.1985 32.1171 66.9863 31.9797Q66.2905 31.5293 65.2505 31.5293Q64.5913 31.5293 64.064 31.738Q63.5366 31.9468 63.1558 32.2617Q62.7749 32.5767 62.5552 32.8989L62.4673 32.8989Q62.5186 31.7856 62.7786 31.0532Q63.0386 30.3208 63.489 29.9033Q63.6189 29.7829 63.7632 29.6832Q64.119 29.4372 64.562 29.3174Q64.9062 29.2148 65.353 29.116Q65.7998 29.0171 66.3052 28.9255Q66.8105 28.834 67.3159 28.7498Q67.8213 28.6655 68.2827 28.5996L68.0703 27.5303Q67.1548 27.6694 66.188 27.8562Q65.2212 28.043 64.2837 28.2993Q63.3843 28.5227 62.756 29.0619Q62.622 29.1769 62.5002 29.3064Q61.8081 30.0425 61.4785 31.2546ZM231.99 28.9072Q232.294 28.4092 232.36 27.6694L231.21 27.6694Q231.129 28.4458 230.727 28.7534Q230.324 29.061 229.621 29.061Q228.83 29.061 228.478 28.7681Q228.126 28.4751 228.046 27.6694L226.903 27.6694Q226.955 28.4238 227.229 28.9219Q227.307 29.0621 227.408 29.1823Q227.666 29.489 228.079 29.6653Q228.654 29.9106 229.599 29.9106Q230.514 29.9106 231.1 29.658Q231.533 29.4713 231.812 29.1507Q231.911 29.0373 231.99 28.9072ZM49.5986 37.8867L49.5986 28.292L44.7134 28.292Q44.6475 29.4785 44.4094 30.7676Q44.1714 32.0566 43.7942 33.3347Q43.417 34.6128 42.9373 35.781Q42.4575 36.9492 41.9082 37.8867L41.0879 37.8867L41.0879 41.7979L42.2817 41.7979L42.2817 39L49.7231 39L49.7231 41.7979L50.917 41.7979L50.917 37.8867L49.5986 37.8867ZM45.812 29.4126L48.3608 29.4126L48.3608 37.8867L43.2266 37.8867Q43.71 37.0518 44.1458 35.9751Q44.5815 34.8984 44.9368 33.7266Q45.292 32.5547 45.519 31.4377Q45.7461 30.3208 45.812 29.4126ZM59.208 36.7368Q59.4644 35.9604 59.4644 34.9717Q59.4644 33.6606 59.0066 32.7341Q58.673 32.0589 58.1449 31.6152Q57.9484 31.45 57.7249 31.3169Q57.6871 31.2944 57.6487 31.2729Q56.8505 30.8262 55.8022 30.8262Q54.6523 30.8262 53.821 31.3132Q53.5636 31.4641 53.343 31.6571Q52.8514 32.0873 52.543 32.7268Q52.0962 33.6533 52.0962 34.9717Q52.0962 35.9604 52.3635 36.7368Q52.6309 37.5132 53.1179 38.0479Q53.3476 38.3 53.618 38.4959Q53.921 38.7155 54.2751 38.8645Q54.9453 39.1465 55.751 39.1465Q56.6152 39.1465 57.3 38.8645Q57.7374 38.6844 58.0925 38.4013Q58.2936 38.2411 58.4683 38.0479Q58.9517 37.5132 59.208 36.7368ZM193.146 36.7368Q193.402 35.9604 193.402 34.9717Q193.402 33.6606 192.945 32.7341Q192.611 32.0589 192.083 31.6152Q191.886 31.45 191.663 31.3169Q191.625 31.2944 191.587 31.2729Q190.788 30.8262 189.74 30.8262Q188.59 30.8262 187.759 31.3132Q187.502 31.4641 187.281 31.6571Q186.789 32.0873 186.481 32.7268Q186.034 33.6533 186.034 34.9717Q186.034 35.9604 186.302 36.7368Q186.569 37.5132 187.056 38.0479Q187.286 38.3 187.556 38.4959Q187.859 38.7155 188.213 38.8645Q188.883 39.1465 189.689 39.1465Q190.553 39.1465 191.238 38.8645Q191.675 38.6844 192.031 38.4013Q192.232 38.2411 192.406 38.0479Q192.89 37.5132 193.146 36.7368ZM239.571 39.0366Q240.072 39.1465 240.753 39.1465Q241.947 39.1465 242.844 38.6887Q243.167 38.5243 243.438 38.2989Q243.923 37.8968 244.247 37.3008Q244.752 36.3706 244.752 34.9717Q244.752 33.4995 244.273 32.5876Q243.94 31.9553 243.426 31.5572Q243.199 31.3812 242.936 31.251Q242.079 30.8262 240.944 30.8262Q240.704 30.8262 240.467 30.8465Q240.108 30.8773 239.754 30.9543Q239.164 31.0825 238.739 31.2729L239.076 32.269Q239.486 32.1152 240.003 31.9944Q240.519 31.8735 240.951 31.8735Q242.13 31.8735 242.744 32.4622Q242.756 32.4736 242.768 32.4851Q243.383 33.0967 243.478 34.3638L239.42 34.3638L239.42 35.3672L243.493 35.3672Q243.441 36.2827 243.108 36.8943Q242.893 37.289 242.571 37.554Q242.394 37.6997 242.185 37.8062Q241.596 38.1064 240.775 38.1064Q240.131 38.1064 239.611 37.9746Q239.091 37.8428 238.637 37.6597L238.637 38.7217Q239.069 38.9268 239.571 39.0366ZM260.28 31.2803Q259.547 30.8262 258.522 30.8262Q257.567 30.8262 256.834 31.2293Q256.741 31.2808 256.651 31.3389Q256.497 31.4382 256.356 31.554Q255.771 32.0354 255.42 32.8Q254.984 33.7485 254.984 35.0449Q254.984 36.3706 255.46 37.2861Q255.768 37.8783 256.237 38.285Q256.493 38.5072 256.797 38.6741Q257.658 39.1465 258.815 39.1465Q259.628 39.1465 260.225 39.022Q260.822 38.8975 261.43 38.6265L261.43 37.5571Q260.8 37.8281 260.214 37.9673Q259.628 38.1064 258.866 38.1064Q257.871 38.1064 257.236 37.6284Q257.081 37.5118 256.947 37.3667Q256.266 36.627 256.244 35.2134L261.789 35.2134L261.789 34.459Q261.789 33.3677 261.4 32.551Q261.148 32.0202 260.75 31.6426Q260.536 31.4392 260.28 31.2803ZM279.704 31.2803Q278.971 30.8262 277.946 30.8262Q276.991 30.8262 276.258 31.2293Q276.164 31.2808 276.074 31.3389Q275.92 31.4382 275.78 31.554Q275.195 32.0354 274.844 32.8Q274.408 33.7485 274.408 35.0449Q274.408 36.3706 274.884 37.2861Q275.192 37.8783 275.661 38.285Q275.917 38.5072 276.221 38.6741Q277.082 39.1465 278.239 39.1465Q279.052 39.1465 279.649 39.022Q280.246 38.8975 280.854 38.6265L280.854 37.5571Q280.224 37.8281 279.638 37.9673Q279.052 38.1064 278.29 38.1064Q277.295 38.1064 276.66 37.6284Q276.505 37.5118 276.371 37.3667Q275.69 36.627 275.668 35.2134L281.212 35.2134L281.212 34.459Q281.212 33.3677 280.824 32.551Q280.572 32.0202 280.174 31.6426Q279.96 31.4392 279.704 31.2803ZM75.6216 31.4854Q74.9258 30.8408 73.4902 30.8408Q72.7139 30.8408 72.0107 31.0386Q71.3076 31.2363 70.7656 31.5146L71.1392 32.4375Q71.6519 32.1885 72.2231 32.0054L72.2248 32.0048Q72.7953 31.8223 73.4243 31.8223Q74.2092 31.8223 74.6527 32.2113Q74.6686 32.2253 74.6841 32.2397Q75.1309 32.6572 75.1309 33.6973L75.1309 34.188L73.7466 34.2466Q71.7983 34.3052 70.8462 34.9497Q70.4174 35.24 70.1817 35.6431Q69.894 36.1352 69.894 36.7954Q69.894 37.5938 70.22 38.1138Q70.3686 38.3509 70.5675 38.5332Q70.8047 38.7507 71.1135 38.8901Q71.6812 39.1465 72.4136 39.1465Q73.1094 39.1465 73.5891 38.9963Q74.0426 38.8544 74.3947 38.5816Q74.415 38.5658 74.4351 38.5496Q74.8013 38.2529 75.1382 37.8135L75.1968 37.8135L75.4312 39L76.3174 39L76.3174 33.5435Q76.3174 32.1299 75.6216 31.4854ZM131.403 31.4854Q130.707 30.8408 129.271 30.8408Q128.495 30.8408 127.792 31.0386Q127.089 31.2363 126.547 31.5146L126.92 32.4375Q127.433 32.1885 128.004 32.0054L128.006 32.0048Q128.577 31.8223 129.206 31.8223Q129.99 31.8223 130.434 32.2113Q130.45 32.2253 130.465 32.2397Q130.912 32.6572 130.912 33.6973L130.912 34.188L129.528 34.2466Q127.58 34.3052 126.627 34.9497Q126.199 35.24 125.963 35.6431Q125.675 36.1352 125.675 36.7954Q125.675 37.5938 126.001 38.1138Q126.15 38.3509 126.349 38.5332Q126.586 38.7507 126.895 38.8901Q127.462 39.1465 128.195 39.1465Q128.891 39.1465 129.37 38.9963Q129.824 38.8544 130.176 38.5816Q130.196 38.5658 130.216 38.5496Q130.583 38.2529 130.919 37.8135L130.978 37.8135L131.212 39L132.099 39L132.099 33.5435Q132.099 32.1299 131.403 31.4854ZM164.354 31.4854Q163.659 30.8408 162.223 30.8408Q161.447 30.8408 160.744 31.0386Q160.041 31.2363 159.499 31.5146L159.872 32.4375Q160.385 32.1885 160.956 32.0054L160.958 32.0048Q161.528 31.8223 162.157 31.8223Q162.942 31.8223 163.386 32.2113Q163.402 32.2253 163.417 32.2397Q163.864 32.6572 163.864 33.6973L163.864 34.188L162.479 34.2466Q160.531 34.3052 159.579 34.9497Q159.15 35.24 158.915 35.6431Q158.627 36.1352 158.627 36.7954Q158.627 37.5938 158.953 38.1138Q159.102 38.3509 159.3 38.5332Q159.538 38.7507 159.846 38.8901Q160.414 39.1465 161.146 39.1465Q161.842 39.1465 162.322 38.9963Q162.776 38.8544 163.128 38.5816Q163.148 38.5658 163.168 38.5496Q163.534 38.2529 163.871 37.8135L163.93 37.8135L164.164 39L165.05 39L165.05 33.5435Q165.05 32.1299 164.354 31.4854ZM84.9015 34.0062Q85.2017 33.6103 85.2017 32.9868Q85.2017 32.2705 84.8515 31.837Q84.8365 31.8184 84.8208 31.8003L84.8185 31.7976Q84.4379 31.3602 83.7771 31.1667Q83.1143 30.9727 82.25 30.9727L78.8223 30.9727L78.8223 39L82.2793 39Q83.4072 39 84.1104 38.6997Q84.8135 38.3994 85.1431 37.8721Q85.201 37.7794 85.2487 37.6817Q85.4727 37.2237 85.4727 36.6562Q85.4727 35.9358 85.1179 35.5129Q85.0327 35.4113 84.927 35.3269Q84.8165 35.2386 84.6973 35.164Q84.2285 34.8703 83.627 34.7886L83.627 34.73Q84.3079 34.5866 84.7433 34.1802Q84.7528 34.1714 84.7622 34.1624Q84.8384 34.0893 84.9015 34.0062ZM88.5928 36.019L88.5928 30.9727L87.4355 30.9727L87.4355 39L88.937 39L93.3022 32.2031Q93.2949 32.4009 93.2803 32.7561Q93.2656 33.1113 93.2583 33.4775Q93.251 33.8438 93.251 34.0781L93.251 39L94.3862 39L94.3862 30.9727L92.8921 30.9727L88.5122 37.7769Q88.5269 37.623 88.5378 37.385Q88.5488 37.147 88.5635 36.887Q88.5781 36.627 88.5854 36.3962Q88.5928 36.1655 88.5928 36.019ZM99.7988 32.0054L102.443 32.0054L102.443 30.9727L95.9902 30.9727L95.9902 32.0054L98.5977 32.0054L98.5977 39L99.7988 39L99.7988 32.0054ZM107.716 34.2832L105.255 34.2832L105.255 30.9727L104.032 30.9727L104.032 39L107.643 39Q108.734 39 109.427 38.6997Q110.056 38.4265 110.389 37.9471Q110.422 37.8996 110.452 37.8501Q110.457 37.8412 110.463 37.8323Q110.785 37.2887 110.785 36.5537Q110.785 35.8066 110.445 35.3013Q110.426 35.2733 110.406 35.2461Q110.066 34.7817 109.423 34.5396Q108.742 34.2832 107.716 34.2832ZM118 34.3418L118 30.9727L116.776 30.9727L116.776 39L118 39L118 35.3745L122.475 35.3745L122.475 39L123.69 39L123.69 30.9727L122.475 30.9727L122.475 34.3418L118 34.3418ZM140.683 34.0062Q140.983 33.6103 140.983 32.9868Q140.983 32.2705 140.633 31.837Q140.618 31.8184 140.602 31.8003L140.6 31.7976Q140.219 31.3602 139.558 31.1667Q138.896 30.9727 138.031 30.9727L134.604 30.9727L134.604 39L138.061 39Q139.188 39 139.892 38.6997Q140.595 38.3994 140.924 37.8721Q140.982 37.7794 141.03 37.6817Q141.254 37.2237 141.254 36.6562Q141.254 35.9358 140.899 35.5129Q140.814 35.4113 140.708 35.3269Q140.598 35.2386 140.479 35.164Q140.01 34.8703 139.408 34.7886L139.408 34.73Q140.089 34.5866 140.525 34.1802Q140.534 34.1714 140.543 34.1624Q140.62 34.0893 140.683 34.0062ZM144.374 36.019L144.374 30.9727L143.217 30.9727L143.217 39L144.718 39L149.083 32.2031Q149.076 32.4009 149.062 32.7561Q149.047 33.1113 149.04 33.4775Q149.032 33.8438 149.032 34.0781L149.032 39L150.167 39L150.167 30.9727L148.673 30.9727L144.293 37.7769Q144.308 37.623 144.319 37.385Q144.33 37.147 144.345 36.887Q144.359 36.627 144.367 36.3962Q144.374 36.1655 144.374 36.019ZM157.624 32.0054L157.624 30.9727L152.753 30.9727L152.753 39L153.976 39L153.976 32.0054L157.624 32.0054ZM174.184 41.7759L175.37 41.7759L175.37 37.9819L174.25 37.9819L174.25 30.9727L173.034 30.9727L173.034 37.9673L168.778 37.9673L168.778 30.9727L167.555 30.9727L167.555 39L174.184 39L174.184 41.7759ZM178.102 36.019L178.102 30.9727L176.945 30.9727L176.945 39L178.446 39L182.812 32.2031Q182.804 32.4009 182.79 32.7561Q182.775 33.1113 182.768 33.4775Q182.76 33.8438 182.76 34.0781L182.76 39L183.896 39L183.896 30.9727L182.401 30.9727L178.021 37.7769Q178.036 37.623 178.047 37.385Q178.058 37.147 178.073 36.887Q178.087 36.627 178.095 36.3962Q178.102 36.1655 178.102 36.019ZM196.728 34.3418L196.728 30.9727L195.504 30.9727L195.504 39L196.728 39L196.728 35.3745L201.203 35.3745L201.203 39L202.418 39L202.418 30.9727L201.203 30.9727L201.203 34.3418L196.728 34.3418ZM206.22 34.3418L206.22 30.9727L204.997 30.9727L204.997 39L206.22 39L206.22 35.3745L210.695 35.3745L210.695 39L211.911 39L211.911 30.9727L210.695 30.9727L210.695 34.3418L206.22 34.3418ZM214.489 30.9727L214.489 39L217.829 39Q218.913 39 219.59 38.6997Q220.188 38.4347 220.506 37.9759Q220.549 37.9147 220.586 37.8501Q220.905 37.3008 220.905 36.5537Q220.905 35.8066 220.583 35.3013Q220.553 35.2556 220.521 35.2119Q220.2 34.7727 219.597 34.5396Q218.935 34.2832 217.909 34.2832L215.712 34.2832L215.712 30.9727L214.489 30.9727ZM222.23 30.9727L222.23 39L223.446 39L223.446 30.9727L222.23 30.9727ZM227.167 36.019L227.167 30.9727L226.01 30.9727L226.01 39L227.511 39L231.876 32.2031Q231.869 32.4009 231.854 32.7561Q231.84 33.1113 231.833 33.4775Q231.825 33.8438 231.825 34.0781L231.825 39L232.96 39L232.96 30.9727L231.466 30.9727L227.086 37.7769Q227.101 37.623 227.112 37.385Q227.123 37.147 227.138 36.887Q227.152 36.627 227.16 36.3962Q227.167 36.1655 227.167 36.019ZM251.63 39L252.868 39L252.868 30.9727L248.136 30.9727Q248.034 32.4448 247.898 33.6057Q247.763 34.7666 247.587 35.6199Q247.411 36.4731 247.188 37.0298Q246.964 37.5864 246.69 37.8611Q246.478 38.0724 246.235 38.1211Q246.162 38.1357 246.085 38.1357Q245.968 38.1357 245.862 38.1211Q245.756 38.1064 245.661 38.0771L245.661 39Q245.785 39.0513 245.961 39.0732Q246.137 39.0952 246.334 39.0952Q246.733 39.0952 247.064 38.9463Q247.275 38.8514 247.459 38.696Q247.931 38.2969 248.264 37.4436Q248.598 36.5903 248.821 35.239Q249.044 33.8877 249.191 31.9907L251.63 31.9907L251.63 39ZM272.328 39L272.328 30.9727L270.702 30.9727L268.073 37.5352L265.48 30.9727L263.847 30.9727L263.847 39L264.953 39L264.953 33.8145Q264.953 33.4482 264.942 33.115Q264.931 32.7817 264.909 32.4448L264.953 32.4448L267.553 39L268.585 39L271.251 32.4448L271.295 32.4448Q271.266 32.7817 271.248 33.115Q271.229 33.4482 271.229 33.7705L271.229 39L272.328 39ZM284.501 34.3418L284.501 30.9727L283.278 30.9727L283.278 39L284.501 39L284.501 35.3745L288.976 35.3745L288.976 39L290.192 39L290.192 30.9727L288.976 30.9727L288.976 34.3418L284.501 34.3418ZM295.597 32.0054L298.241 32.0054L298.241 30.9727L291.789 30.9727L291.789 32.0054L294.396 32.0054L294.396 39L295.597 39L295.597 32.0054ZM257.358 32.1212Q257.84 31.8223 258.507 31.8223Q259.196 31.8223 259.635 32.1262Q259.735 32.1955 259.824 32.2774Q260.124 32.5546 260.291 32.9758Q260.507 33.5215 260.514 34.2393L256.266 34.2393Q256.376 33.0967 256.955 32.4595Q257.137 32.2587 257.358 32.1212ZM276.782 32.1212Q277.264 31.8223 277.931 31.8223Q278.62 31.8223 279.059 32.1262Q279.159 32.1955 279.248 32.2774Q279.548 32.5546 279.715 32.9758Q279.931 33.5215 279.938 34.2393L275.69 34.2393Q275.8 33.0967 276.378 32.4595Q276.561 32.2587 276.782 32.1212ZM53.6123 36.6489Q53.356 35.9385 53.356 34.9717Q53.356 33.5068 53.9382 32.6792Q54.0896 32.4641 54.2862 32.3049Q54.846 31.8516 55.7729 31.8516Q56.6226 31.8516 57.1572 32.2324Q57.2393 32.2909 57.3148 32.3568Q57.7312 32.7206 57.9482 33.3127Q58.2046 34.0122 58.2046 34.9717Q58.2046 35.9385 57.9482 36.6489Q57.7292 37.2559 57.3044 37.6277Q57.232 37.691 57.1536 37.7476Q56.6152 38.1357 55.7803 38.1357Q54.938 38.1357 54.4033 37.7476Q54.3334 37.6968 54.2682 37.6405Q53.8351 37.2665 53.6123 36.6489ZM187.55 36.6489Q187.294 35.9385 187.294 34.9717Q187.294 33.5068 187.876 32.6792Q188.028 32.4641 188.224 32.3049Q188.784 31.8516 189.711 31.8516Q190.561 31.8516 191.095 32.2324Q191.177 32.2909 191.253 32.3568Q191.669 32.7206 191.886 33.3127Q192.143 34.0122 192.143 34.9717Q192.143 35.9385 191.886 36.6489Q191.667 37.2559 191.242 37.6277Q191.17 37.691 191.092 37.7476Q190.553 38.1357 189.718 38.1357Q188.876 38.1357 188.341 37.7476Q188.271 37.6968 188.206 37.6405Q187.773 37.2665 187.55 36.6489ZM83.7925 32.5127Q83.9639 32.76 83.9639 33.126Q83.9639 33.4464 83.8201 33.6771Q83.6943 33.8789 83.4585 34.0122Q82.9531 34.2979 81.9644 34.2979L80.0454 34.2979L80.0454 31.9907L82.1768 31.9907Q83.1289 31.9907 83.5464 32.2727Q83.6964 32.374 83.7925 32.5127ZM139.574 32.5127Q139.745 32.76 139.745 33.126Q139.745 33.4464 139.601 33.6771Q139.476 33.8789 139.24 34.0122Q138.734 34.2979 137.746 34.2979L135.827 34.2979L135.827 31.9907L137.958 31.9907Q138.91 31.9907 139.328 32.2727Q139.478 32.374 139.574 32.5127ZM66.0525 37.8428Q65.5508 38.1357 64.855 38.1357Q64.1152 38.1357 63.6355 37.8062Q63.524 37.7296 63.4238 37.6403Q63.0928 37.3455 62.8848 36.9126Q62.6138 36.3486 62.5039 35.6455Q62.394 34.9424 62.394 34.1953Q62.5625 33.8877 62.936 33.4995Q63.3096 33.1113 63.8516 32.8293Q63.9202 32.7936 63.9908 32.7625Q64.4779 32.5474 65.0601 32.5474Q65.8347 32.5474 66.3038 32.926Q66.4822 33.07 66.6165 33.2688Q67.1035 33.9902 67.1035 35.2646Q67.1035 36.2827 66.8289 36.9163Q66.5774 37.4964 66.1355 37.7909Q66.0948 37.8181 66.0525 37.8428ZM73.8931 35.0962L75.1162 35.0449L75.1162 35.7847Q75.1162 36.8083 74.6092 37.3904Q74.5286 37.483 74.4351 37.5645Q74.3164 37.6678 74.186 37.7531Q73.5677 38.1577 72.6846 38.1577Q71.9961 38.1577 71.5786 37.8281Q71.5015 37.7672 71.4386 37.6941Q71.1611 37.3713 71.1611 36.8101Q71.1611 36.3674 71.3538 36.0372Q71.5054 35.7772 71.7764 35.5869Q72.3916 35.1548 73.8931 35.0962ZM129.674 35.0962L130.897 35.0449L130.897 35.7847Q130.897 36.8083 130.39 37.3904Q130.31 37.483 130.216 37.5645Q130.098 37.6678 129.967 37.7531Q129.349 38.1577 128.466 38.1577Q127.777 38.1577 127.36 37.8281Q127.283 37.7672 127.22 37.6941Q126.942 37.3713 126.942 36.8101Q126.942 36.3674 127.135 36.0372Q127.287 35.7772 127.558 35.5869Q128.173 35.1548 129.674 35.0962ZM162.626 35.0962L163.849 35.0449L163.849 35.7847Q163.849 36.8083 163.342 37.3904Q163.261 37.483 163.168 37.5645Q163.049 37.6678 162.919 37.7531Q162.301 38.1577 161.417 38.1577Q160.729 38.1577 160.312 37.8281Q160.234 37.7672 160.171 37.6941Q159.894 37.3713 159.894 36.8101Q159.894 36.3674 160.087 36.0372Q160.238 35.7772 160.509 35.5869Q161.125 35.1548 162.626 35.0962ZM109.307 35.7988Q109.562 36.0957 109.562 36.6123Q109.562 37.1029 109.325 37.4119Q109.201 37.5734 109.013 37.6853Q108.463 38.0112 107.584 38.0112L105.255 38.0112L105.255 35.2939L107.577 35.2939Q108.515 35.2939 109.038 35.5833Q109.196 35.6705 109.307 35.7988ZM217.711 38.0112L215.712 38.0112L215.712 35.2939L217.748 35.2939Q218.693 35.2939 219.198 35.5833Q219.336 35.6622 219.436 35.7747Q219.704 36.0745 219.704 36.6123Q219.704 37.1241 219.454 37.437Q219.336 37.5853 219.162 37.689Q218.62 38.0112 217.711 38.0112ZM83.9921 35.9183Q84.2056 36.2089 84.2056 36.6562Q84.2056 37.1481 83.9661 37.45Q83.849 37.5977 83.6746 37.7Q83.1436 38.0112 82.1328 38.0112L80.0454 38.0112L80.0454 35.3159L82.1035 35.3159Q83.1289 35.3159 83.6672 35.6309Q83.8666 35.7475 83.9921 35.9183ZM139.773 35.9183Q139.987 36.2089 139.987 36.6562Q139.987 37.1481 139.747 37.45Q139.63 37.5977 139.456 37.7Q138.925 38.0112 137.914 38.0112L135.827 38.0112L135.827 35.3159L137.885 35.3159Q138.91 35.3159 139.448 35.6309Q139.648 35.7475 139.773 35.9183Z" fill="#FFFFFF" fill-opacity="1.000000" fill-rule="evenodd"/>
	</g>
	<circle id="Ellipse 50" cx="311.000000" cy="12.000000" r="12.000000" fill="#FFFFFF" fill-opacity="1.000000"/>
	<circle id="Ellipse 50" cx="311.000000" cy="12.000000" r="11.586206" stroke="#2F74FA" stroke-opacity="1.000000" stroke-width="0.827586"/>
	<path id="+" d="M314.627 11.522L312.13 11.522L312.13 8.93986L311.299 8.93986L311.299 11.522L308.802 11.522L308.802 12.3464L311.299 12.3464L311.299 14.9164L312.13 14.9164L312.13 12.3464L314.627 12.3464L314.627 11.522Z" fill="#2F74FA" fill-opacity="1.000000" fill-rule="evenodd"/>
</svg>
