<svg width="21.000000" height="21.000000" viewBox="0 0 21 21" fill="none" xmlns="http://www.w3.org/2000/svg" xmlns:xlink="http://www.w3.org/1999/xlink">
	<desc>
			Created with Pixso.
	</desc>
	<defs>
		<clipPath id="clip47_5463">
			<rect id="fluent:delete-32-filled" width="21.000000" height="21.000000" fill="white" fill-opacity="0"/>
		</clipPath>
	</defs>
	<rect id="fluent:delete-32-filled" width="21.000000" height="21.000000" fill="#FFFFFF" fill-opacity="0"/>
	<g clip-path="url(#clip47_5463)">
		<path id="Vector" d="M8.85938 4.26562L8.85938 4.59375L12.1406 4.59375L12.1406 4.26562C12.1406 3.83008 11.9678 3.41406 11.6602 3.10547C11.3525 2.79688 10.9355 2.625 10.5 2.625C10.0645 2.625 9.64746 2.79688 9.33984 3.10547C9.03223 3.41406 8.85938 3.83008 8.85938 4.26562ZM7.54688 4.59375L7.54688 4.26562C7.54688 3.48242 7.8584 2.73047 8.41211 2.17773C8.96582 1.62305 9.7168 1.3125 10.5 1.3125C11.2832 1.3125 12.0342 1.62305 12.5879 2.17773C13.1416 2.73047 13.4531 3.48242 13.4531 4.26562L13.4531 4.59375L18.375 4.59375C18.5488 4.59375 18.7158 4.66211 18.8389 4.78516C18.9619 4.9082 19.0312 5.07617 19.0312 5.25C19.0312 5.42383 18.9619 5.5918 18.8389 5.71484C18.7158 5.83789 18.5488 5.90625 18.375 5.90625L17.3857 5.90625L16.1436 16.7793C16.0518 17.5801 15.6689 18.3184 15.0674 18.8555C14.4658 19.3926 13.6885 19.6875 12.8818 19.6875L8.11816 19.6875C7.31152 19.6875 6.53418 19.3926 5.93262 18.8555C5.33105 18.3184 4.94824 17.5801 4.85645 16.7793L3.61426 5.90625L2.625 5.90625C2.45117 5.90625 2.28418 5.83789 2.16113 5.71484C2.03809 5.5918 1.96875 5.42383 1.96875 5.25C1.96875 5.07617 2.03809 4.9082 2.16113 4.78516C2.28418 4.66211 2.45117 4.59375 2.625 4.59375L7.54688 4.59375ZM9.1875 8.85938C9.1875 8.68555 9.11816 8.51758 8.99512 8.39453C8.87207 8.27148 8.70508 8.20312 8.53125 8.20312C8.35742 8.20312 8.19043 8.27148 8.06738 8.39453C7.94434 8.51758 7.875 8.68555 7.875 8.85938L7.875 15.4219C7.875 15.5957 7.94434 15.7637 8.06738 15.8867C8.19043 16.0098 8.35742 16.0781 8.53125 16.0781C8.70508 16.0781 8.87207 16.0098 8.99512 15.8867C9.11816 15.7637 9.1875 15.5957 9.1875 15.4219L9.1875 8.85938ZM12.4688 8.20312C12.2949 8.20312 12.1279 8.27148 12.0049 8.39453C11.8818 8.51758 11.8125 8.68555 11.8125 8.85938L11.8125 15.4219C11.8125 15.5957 11.8818 15.7637 12.0049 15.8867C12.1279 16.0098 12.2949 16.0781 12.4688 16.0781C12.6426 16.0781 12.8096 16.0098 12.9326 15.8867C13.0557 15.7637 13.125 15.5957 13.125 15.4219L13.125 8.85938C13.125 8.68555 13.0557 8.51758 12.9326 8.39453C12.8096 8.27148 12.6426 8.20312 12.4688 8.20312Z" fill="#3A64FA" fill-opacity="1.000000" fill-rule="nonzero"/>
	</g>
</svg>
