<svg width="146.000000" height="30.205078" viewBox="0 0 146 30.2051" fill="none" xmlns="http://www.w3.org/2000/svg" xmlns:xlink="http://www.w3.org/1999/xlink">
	<desc>
			Created with Pixso.
	</desc>
	<defs>
		<clipPath id="clip220_3802">
			<rect id="BLACK def 1" width="146.000000" height="30.204557" fill="white" fill-opacity="0"/>
		</clipPath>
		<linearGradient id="paint_linear_220_3803_0" x1="31.686493" y1="30.203260" x2="1.517868" y2="-1.446817" gradientUnits="userSpaceOnUse">
			<stop stop-color="#364CFC"/>
			<stop offset="1.000000" stop-color="#03D0FF"/>
		</linearGradient>
	</defs>
	<rect id="BLACK def 1" width="146.000000" height="30.204557" fill="#FFFFFF" fill-opacity="0"/>
	<g clip-path="url(#clip220_3802)">
		<path id="Vector" d="M3.77539 28.541L0 7.95508L12.0596 4.92773C11.7949 5.20703 11.542 5.50391 11.3018 5.81836C10.498 6.9043 9.90137 8.17383 9.50977 9.62891L15.8311 10.0215C16.6348 7.76172 18.5352 6.63281 21.5332 6.63281C23.9443 6.63281 25.1494 7.26367 25.1494 8.52148C25.1494 9.17383 24.8018 9.79297 24.1074 10.3789C23.4336 10.9648 22.293 11.6719 20.6855 12.4961L7.16406 19.5312L6.38184 24.4512L27.8301 24.4512L26.9219 30.2031L3.77539 28.541ZM29.7764 12.1074L28.6777 19.0762L18.1123 19.0762L23.9443 16.0781C26.6807 14.6719 28.624 13.3477 29.7764 12.1074ZM31.6865 0L30.9521 4.6543C30.5098 3.94336 29.8789 3.34375 29.0596 2.85547C28.04 2.24609 26.8574 1.81055 25.5107 1.55078L31.6865 0Z" fill="url(#paint_linear_220_3803_0)" fill-opacity="1.000000" fill-rule="evenodd"/>
		<path id="Vector" d="M47.2012 15.9824C49.5742 16.1973 50.7607 17.0781 50.7607 18.625C50.7607 19.7637 50.2275 20.6797 49.1611 21.375C48.1064 22.0586 46.5605 22.4004 44.5225 22.4004L35.7314 22.4004L37.7266 9.81445L46.5186 9.81445C48.0283 9.81445 49.1729 10.0918 49.9521 10.6426C50.7314 11.1934 51.1211 11.9316 51.1211 12.8535C51.1211 13.7773 50.7676 14.4961 50.0596 15.0117C49.3525 15.5137 48.4004 15.8379 47.2012 15.9824ZM47.3457 13.5898C47.3457 12.9922 46.8838 12.6914 45.9609 12.6914L41.0166 12.6914L40.6934 14.6875L45.6377 14.6875C46.1768 14.6875 46.5967 14.5918 46.8955 14.4004C47.1953 14.1953 47.3457 13.9258 47.3457 13.5898ZM44.5586 19.5234C46.2012 19.5234 47.0215 19.1523 47.0215 18.4082C47.0215 17.75 46.375 17.4199 45.0801 17.4199L40.2617 17.4199L39.9199 19.5234L44.5586 19.5234ZM63.9199 22.4004L63.2734 19.9727L56.082 19.9727L54.6797 22.4004L50.9219 22.4004L58.4365 9.81445L64.1895 9.81445L67.7314 22.4004L63.9199 22.4004ZM57.7002 17.168L62.5361 17.168L61.0078 11.4336L57.7002 17.168ZM79.8574 9.81445L84.1357 9.81445L76.459 17.6895L75.7051 22.4004L71.9648 22.4004L72.7207 17.6895L67.5244 9.81445L71.9473 9.81445L75.0752 15.0293L79.8574 9.81445ZM92.251 17.7793L89.0322 19.4336L96.0439 19.4336L95.5762 22.4004L82.5605 22.4004L82.9922 19.6855L90.4531 15.8027C91.3398 15.3457 91.9688 14.957 92.3398 14.6328C92.7236 14.3105 92.916 13.9688 92.916 13.6094C92.916 12.9141 92.251 12.5664 90.9199 12.5664C89.2666 12.5664 88.2178 13.1895 87.7734 14.4355L84.2861 14.2207C84.502 13.416 84.8311 12.7168 85.2754 12.1172C85.7305 11.5176 86.2695 11.0371 86.8936 10.6777C87.5283 10.3066 88.2109 10.0371 88.9424 9.86914C89.6738 9.68945 90.459 9.59961 91.2979 9.59961C92.832 9.59961 94.0898 9.89258 95.0732 10.4805C96.0557 11.0684 96.5469 11.9434 96.5469 13.1055C96.5469 13.9082 96.2354 14.6816 95.6123 15.4238C95.001 16.1562 93.8809 16.9414 92.251 17.7793ZM109.019 15.9824C111.393 16.1973 112.579 17.0781 112.579 18.625C112.579 19.7637 112.045 20.6797 110.979 21.375C109.924 22.0586 108.378 22.4004 106.34 22.4004L97.5488 22.4004L99.5449 9.81445L108.336 9.81445C109.846 9.81445 110.99 10.0918 111.77 10.6426C112.549 11.1934 112.938 11.9316 112.938 12.8535C112.938 13.7773 112.585 14.4961 111.878 15.0117C111.17 15.5137 110.218 15.8379 109.019 15.9824ZM109.162 13.5898C109.162 12.9922 108.701 12.6914 107.778 12.6914L102.835 12.6914L102.511 14.6875L107.455 14.6875C107.994 14.6875 108.414 14.5918 108.713 14.4004C109.014 14.1953 109.162 13.9258 109.162 13.5898ZM106.376 19.5234C108.019 19.5234 108.84 19.1523 108.84 18.4082C108.84 17.75 108.192 17.4199 106.897 17.4199L102.079 17.4199L101.737 19.5234L106.376 19.5234ZM125.737 22.4004L125.09 19.9727L117.899 19.9727L116.497 22.4004L112.739 22.4004L120.254 9.81445L126.007 9.81445L129.549 22.4004L125.737 22.4004ZM119.517 17.168L124.354 17.168L122.825 11.4336L119.517 17.168ZM141.675 9.81445L145.954 9.81445L138.277 17.6895L137.522 22.4004L133.782 22.4004L134.538 17.6895L129.342 9.81445L133.765 9.81445L136.893 15.0293L141.675 9.81445Z" fill="#000517" fill-opacity="1.000000" fill-rule="nonzero"/>
	</g>
</svg>
